<?xml version="1.0" encoding="utf-8"?>
<!-- Generator: Adobe Illustrator 16.0.0, SVG Export Plug-In . SVG Version: 6.00 Build 0)  -->
<!DOCTYPE svg PUBLIC "-//W3C//DTD SVG 1.1//EN" "http://www.w3.org/Graphics/SVG/1.1/DTD/svg11.dtd">
<svg version="1.1" xmlns="http://www.w3.org/2000/svg" xmlns:xlink="http://www.w3.org/1999/xlink" x="0px" y="0px" width="1003px"
	 height="944px" viewBox="0 0 1003 944" enable-background="new 0 0 1003 944" xml:space="preserve">
<g id="Layer_3">
	
		<radialGradient id="SVGID_1_" cx="-157.2998" cy="392.75" r="133.8125" gradientTransform="matrix(3.9984 0 0 3.6724 1133.75 -1001.4507)" gradientUnits="userSpaceOnUse">
		<stop  offset="0" style="stop-color:#FEFFFF"/>
		<stop  offset="1" style="stop-color:#E9FFFF"/>
	</radialGradient>
	<rect x="0.005" y="0.021" fill-rule="evenodd" clip-rule="evenodd" fill="url(#SVGID_1_)" width="1002.997" height="943.996"/>
</g>
<g id="Layer_2">
	
		<line fill-rule="evenodd" clip-rule="evenodd" fill="none" stroke="#009900" stroke-width="3" stroke-linecap="round" stroke-linejoin="round" stroke-miterlimit="3" x1="316.623" y1="233.6" x2="475.523" y2="233.6"/>
	
		<line fill-rule="evenodd" clip-rule="evenodd" fill="none" stroke="#33CCFF" stroke-width="3" stroke-linecap="round" stroke-linejoin="round" stroke-miterlimit="3" x1="514.923" y1="233.6" x2="673.823" y2="233.6"/>
	
		<line fill-rule="evenodd" clip-rule="evenodd" fill="none" stroke="#FF1010" stroke-width="3" stroke-linecap="round" stroke-linejoin="round" stroke-miterlimit="3" x1="723.974" y1="233.6" x2="882.873" y2="233.6"/>
	
		<line fill-rule="evenodd" clip-rule="evenodd" fill="none" stroke="#FF0000" stroke-width="3" stroke-linecap="round" stroke-linejoin="round" stroke-miterlimit="3" x1="315.573" y1="525.35" x2="474.473" y2="525.35"/>
	
		<line fill-rule="evenodd" clip-rule="evenodd" fill="none" stroke="#009900" stroke-width="3" stroke-linecap="round" stroke-linejoin="round" stroke-miterlimit="3" x1="513.224" y1="525.35" x2="672.123" y2="525.35"/>
	
		<line fill-rule="evenodd" clip-rule="evenodd" fill="none" stroke="#33CCFF" stroke-width="3" stroke-linecap="round" stroke-linejoin="round" stroke-miterlimit="3" x1="721.373" y1="525.35" x2="880.273" y2="525.35"/>
	
		<line fill-rule="evenodd" clip-rule="evenodd" fill="none" stroke="#009900" stroke-width="3" stroke-linecap="round" stroke-linejoin="round" stroke-miterlimit="3" x1="313.05" y1="829.05" x2="471.95" y2="829.05"/>
	
		<line fill-rule="evenodd" clip-rule="evenodd" fill="none" stroke="#FFCC00" stroke-width="3" stroke-linecap="round" stroke-linejoin="round" stroke-miterlimit="3" x1="724.1" y1="829.05" x2="883" y2="829.05"/>
	
		<line fill-rule="evenodd" clip-rule="evenodd" fill="none" stroke="#FFCC00" stroke-width="3" stroke-linecap="round" stroke-linejoin="round" stroke-miterlimit="3" x1="123.173" y1="525.35" x2="282.073" y2="525.35"/>
	
		<line fill-rule="evenodd" clip-rule="evenodd" fill="none" stroke="#33CCFF" stroke-width="3" stroke-linecap="round" stroke-linejoin="round" stroke-miterlimit="3" x1="117.45" y1="829.6" x2="276.35" y2="829.6"/>
	<g>
		<path fill-rule="evenodd" clip-rule="evenodd" fill="#0FC0E8" d="M887.75,655c0,1.167-0.483,2.717-1.45,4.65
			c-1.133,2.267-2.366,3.399-3.7,3.399c-4.133,0-6.199-1.649-6.199-4.95c0-4.566,1.899-6.966,5.699-7.199
			c1.467-0.101,2.767,0.233,3.9,1C887.167,652.733,887.75,653.767,887.75,655z"/>
		<path fill-rule="evenodd" clip-rule="evenodd" fill="#0FC0E8" d="M846.1,685.35c3.033,0.233,4.551,2.067,4.551,5.5
			c0,1.9,0,2.884,0,2.95c-0.268,1.267-1.051,1.9-2.351,1.9c-2.6,0-4.5-1.05-5.7-3.15c-0.733-1.3-1.1-2.7-1.1-4.2
			c0-0.933,0.483-1.699,1.45-2.3C843.85,685.483,844.9,685.25,846.1,685.35z"/>
		<path fill-rule="evenodd" clip-rule="evenodd" fill="#0FC0E8" d="M816.9,679.5c0,1.2-0.317,2.467-0.95,3.8c-1,2-2.483,3-4.45,3
			c-0.134,0-1.75-2.616-4.85-7.85c0-0.7,0.533-1.351,1.6-1.95c1.033-0.566,2.217-0.883,3.55-0.95
			C815.2,675.35,816.9,676.667,816.9,679.5z"/>
		<path fill-rule="evenodd" clip-rule="evenodd" fill="#0FC0E8" d="M769.25,694.8c0,1.4-0.417,2.717-1.25,3.95
			c-1.134,1.7-2.783,2.55-4.95,2.55c-1,0-1.983-1.217-2.95-3.649c-0.733-2.301-1.1-3.334-1.1-3.101c0-0.6,0.533-1.233,1.6-1.899
			c1.067-0.667,2.25-1.117,3.551-1.351C767.55,690.733,769.25,691.9,769.25,694.8z"/>
		<path fill-rule="evenodd" clip-rule="evenodd" fill="#0FC0E8" d="M790.3,736.4c0,0.866-0.7,1.699-2.1,2.5
			c-1.233,0.733-2.334,1.1-3.3,1.1c-0.867,0-1.75-1.2-2.65-3.6c-0.733-2.301-1.1-3.4-1.1-3.301c0-0.732,0.482-1.35,1.449-1.85
			c0.934-0.467,1.983-0.633,3.15-0.5C788.783,731.05,790.3,732.934,790.3,736.4z"/>
		<path fill-rule="evenodd" clip-rule="evenodd" fill="#0FC0E8" d="M751.1,743.65c0.467,0.333,1.117,1.199,1.95,2.6
			c0.833,1.434,1.25,2.434,1.25,3c0,1-0.684,1.8-2.05,2.4h-3.9c-1.133-0.5-2.066-1.367-2.8-2.601c-0.6-1.033-0.899-2-0.899-2.899
			c0-0.867,0.133-1.417,0.399-1.65C745.917,743.667,747.934,743.384,751.1,743.65z"/>
		<path fill-rule="evenodd" clip-rule="evenodd" fill="#76C416" d="M760.7,731.4c0-0.4,0.3-0.884,0.899-1.45
			c0.9-0.833,1.567-1.583,2-2.25c-1.566-2.333-2.35-3.717-2.35-4.15c0-2.1,1.7-2.467,5.1-1.1c3.4,1.366,5.101,2.667,5.101,3.899
			c0,0.601-0.084,1.334-0.25,2.2c-0.2,0.867-0.3,1.384-0.3,1.55c0,0.7-0.184,1.184-0.551,1.45c-0.399,0.3-1.233,0.45-2.5,0.45
			c-0.433,0-1.183,0.217-2.25,0.65c-1.033,0.433-1.783,0.649-2.25,0.649c-1.366,0-2.217-0.283-2.55-0.85
			C760.733,732.316,760.7,731.967,760.7,731.4z"/>
		<path fill-rule="evenodd" clip-rule="evenodd" fill="#76C416" d="M778.3,757.4c0.434-1.5,0.65-2.45,0.65-2.851
			c0-0.733-0.367-1.5-1.101-2.3c-0.733-0.767-1.1-1.533-1.1-2.3c0-0.8,1.8-1.8,5.4-3c3.6-1.2,5.399-0.684,5.399,1.55
			c0,0.533-0.283,1.033-0.85,1.5c-0.601,0.5-1.233,0.767-1.9,0.8c0.033,0.134,0.25,0.867,0.65,2.2c0.3,1,0.45,1.767,0.45,2.3
			c0,1.3-0.15,2.15-0.45,2.55c-0.7,1-2.367,1.5-5,1.5C778.883,759.35,778.167,758.7,778.3,757.4z"/>
		<path fill-rule="evenodd" clip-rule="evenodd" fill="#76C416" d="M812.9,708.35c4.133,1.667,6.199,4.334,6.199,8
			c0,0.5-0.199,0.934-0.6,1.301c-0.4,0.399-0.9,0.649-1.5,0.75h-4.95c-0.8-0.567-1.316-0.934-1.55-1.101
			c-0.367-0.267-0.55-0.55-0.55-0.85c0-0.233,0.183-0.601,0.55-1.101c0.434-0.666,0.983-1.25,1.65-1.75V712.4
			c-1.834,0.033-3.25-0.217-4.25-0.75c-0.834-0.467-1.25-1.084-1.25-1.851c0-1.133,0.649-1.816,1.949-2.05
			C809.833,707.517,811.267,707.717,812.9,708.35z"/>
		<path fill-rule="evenodd" clip-rule="evenodd" fill="#76C416" d="M829.05,693.25c0,0.467,0.184,0.884,0.55,1.25
			c0.367,0.367,0.551,0.767,0.551,1.2c0,1.066-0.534,1.767-1.601,2.1c-2.167,0.634-4,1.434-5.5,2.4l-1.899-0.8
			c-0.034-0.601,0.05-1.45,0.25-2.551c0.166-1.166,0.25-1.966,0.25-2.399s-0.184-1.05-0.551-1.851c-0.366-0.8-0.55-1.433-0.55-1.899
			c0-1.333,1.601-1.967,4.8-1.9c3.2,0.067,4.801,0.9,4.801,2.5c0,0.467-0.184,0.8-0.551,1
			C829.233,692.467,829.05,692.783,829.05,693.25z"/>
		<path fill-rule="evenodd" clip-rule="evenodd" fill="#76C416" d="M869.05,685.45c0.767,0.233,1.351,0.616,1.75,1.149
			c0.233,0.367,0.351,0.7,0.351,1c0,0.601-0.317,1.117-0.95,1.551c-0.7,0.5-1.667,0.733-2.9,0.699c0,0.434,0.184,1.2,0.55,2.301
			c0.367,1.066,0.551,1.833,0.551,2.3c0,1.1-0.7,1.917-2.101,2.45h-5.55c-1.033-0.301-1.667-0.684-1.9-1.15
			c-0.1-0.2-0.149-0.633-0.149-1.3c0-0.434,0.183-1.05,0.55-1.851c0.366-0.767,0.55-1.383,0.55-1.85c0-0.366-0.267-0.983-0.8-1.85
			c-0.566-0.867-0.85-1.5-0.85-1.9c0-0.866,0.466-1.45,1.399-1.75C861.15,684.717,864.316,684.783,869.05,685.45z"/>
		<path fill-rule="evenodd" clip-rule="evenodd" fill="#CF112B" d="M782.15,708.75c1.399,0.967,2.1,2.783,2.1,5.45
			c0,2.333,0,3.533,0,3.6c-0.267,1.167-1.167,1.75-2.7,1.75c-2,0-3.967-1.416-5.899-4.25c-1.534-2.866-2.301-4.333-2.301-4.399
			c0-0.834,0.384-1.4,1.15-1.7C775.733,708.733,778.283,708.583,782.15,708.75z"/>
		<path fill-rule="evenodd" clip-rule="evenodd" fill="#CF112B" d="M809.1,692.6c0,0.268-0.267,0.817-0.8,1.65
			c-0.566,0.867-0.85,1.417-0.85,1.65c0,0.267,0.283,0.816,0.85,1.649c0.533,0.867,0.8,1.417,0.8,1.65c0,0.899-0.35,1.5-1.05,1.8
			c-0.467,0.2-1.25,0.3-2.35,0.3c-2.233,0-3.4-0.816-3.5-2.45c0.333-1.699,0.5-2.583,0.5-2.649c0-0.267-0.267-0.816-0.8-1.65
			c-0.567-0.866-0.851-1.35-0.851-1.45c0-1.366,1.351-2.25,4.05-2.649C807.767,690.017,809.1,690.733,809.1,692.6z"/>
		<path fill-rule="evenodd" clip-rule="evenodd" fill="#CF112B" d="M828.8,674.4c0-1.967,1.8-2.834,5.4-2.601
			c3.566,0.2,5.35,1.05,5.35,2.55c0,5.768-1.316,8.65-3.95,8.65c-2.433,0-4.017-0.55-4.75-1.65c-0.267-1.133-0.399-1.732-0.399-1.8
			c0-0.566,0.133-1.066,0.399-1.5c0.134-0.267,0.367-0.666,0.7-1.2l0.101-0.3C829.75,676.384,828.8,675.667,828.8,674.4z"/>
		<path fill-rule="evenodd" clip-rule="evenodd" fill="#CF112B" d="M854.65,707.1c3.6,1.301,5.399,3.667,5.399,7.101
			c0,1.2-0.033,1.899-0.1,2.1c-0.233,0.7-0.884,1.217-1.95,1.55h-4.45c-1.399-1.033-2.1-1.949-2.1-2.75c0-1.166,0.366-2.366,1.1-3.6
			c-1.366,0.2-2.316-0.066-2.85-0.8c-0.3-0.4-0.45-0.884-0.45-1.45c0-1.233,0.566-2.033,1.7-2.4
			C851.983,706.483,853.217,706.566,854.65,707.1z"/>
		<path fill-rule="evenodd" clip-rule="evenodd" fill="#CF112B" d="M803.4,735.65c1.232,1,1.85,2.767,1.85,5.3
			c0,1.8-0.184,2.917-0.55,3.35c-1.233,1.567-4.351,2.351-9.351,2.351c-1.333,0-2-0.634-2-1.9c0-2.2,0.617-4.2,1.851-6
			c1.133-1.667,2.5-2.816,4.1-3.45C800.934,734.667,802.3,734.783,803.4,735.65z"/>
		<path fill-rule="evenodd" clip-rule="evenodd" fill="#CF112B" d="M742.15,743.75c0,0.934-0.384,1.617-1.15,2.05
			c-1,0.567-2.7,0.851-5.1,0.851c-2.233,0-3.934-0.601-5.101-1.801c-0.767-0.767-1.149-1.466-1.149-2.1
			c0-1.467,2.083-2.05,6.25-1.75C740.066,741.267,742.15,742.184,742.15,743.75z"/>
		<path fill-rule="evenodd" clip-rule="evenodd" fill="#E0E407" d="M792.4,688.1c1.199,0.733,1.8,1.184,1.8,1.351
			c0,1.366-0.684,2.616-2.05,3.75c-0.867,0.733-3.284,2.333-7.25,4.8l-2-0.8c-0.067-1.101-0.101-2.833-0.101-5.2
			c0-4.833,1.9-6.733,5.7-5.7C789.733,686.6,791.033,687.2,792.4,688.1z"/>
		<path fill-rule="evenodd" clip-rule="evenodd" fill="#E0E407" d="M749,710.1c1.033-0.866,3.4-1.133,7.1-0.8
			c1.367,0.4,2.051,1.101,2.051,2.101c0,1.133-1.967,3.666-5.9,7.6l-2-0.65c-0.134-0.933-0.467-2.199-1-3.8
			c-0.5-1.399-0.75-2.383-0.75-2.95c-0.066-0.166-0.083-0.333-0.05-0.5C748.483,710.733,748.667,710.4,749,710.1z"/>
		<path fill-rule="evenodd" clip-rule="evenodd" fill="#E0E407" d="M746.15,759.65c1,0.033,1.732,0.467,2.199,1.3
			c0.233,0.434,0.367,0.866,0.4,1.3c0,0.967-0.917,2.566-2.75,4.8c-1.867,2.267-3.316,3.4-4.35,3.4c-1.034,0-1.667-0.367-1.9-1.101
			c-0.033-0.767-0.05-1.183-0.05-1.25c0-0.566,0.149-1.183,0.45-1.85c0.399-0.767,0.683-1.333,0.85-1.7c-1-0.6-1.667-1.05-2-1.35
			c-0.267-0.233-0.4-0.483-0.4-0.75c0-0.867,0.283-1.5,0.851-1.9C740.583,759.684,742.816,759.384,746.15,759.65z"/>
		<path fill-rule="evenodd" clip-rule="evenodd" fill="#E0E407" d="M800.4,757.45c1.232,0.533,2.232,2.133,3,4.8
			c0.366,1.367,0.616,2.7,0.75,4c0,0.533-0.268,1.017-0.801,1.45c-0.467,0.366-0.899,0.55-1.3,0.55h-5.5
			c-1.767-1.233-2.649-4.1-2.649-8.6c0-0.801,0.3-1.367,0.899-1.7C795.767,757.45,797.633,757.283,800.4,757.45z"/>
		<path fill-rule="evenodd" clip-rule="evenodd" fill="#E0E407" d="M832.5,708.75c0.7,0.2,1.25,0.55,1.65,1.05
			c0.3,0.4,0.449,0.75,0.449,1.05c0,0.467-0.183,1.25-0.55,2.351c-0.366,1.133-0.55,1.816-0.55,2.05c0,1.033-0.1,1.717-0.3,2.05
			c-0.467,0.733-1.533,1.101-3.2,1.101c-1.867,0-3.55-0.917-5.05-2.75l-1.65-2.75c0-1.233,0.384-2.217,1.15-2.95
			C825.95,708.517,828.633,708.117,832.5,708.75z"/>
		<path fill-rule="evenodd" clip-rule="evenodd" fill="#E0E407" d="M873.45,669.95c1.767,1.1,2.8,1.833,3.1,2.2
			c0.467,0.5,0.7,1.25,0.7,2.25c-1.967,5.733-3.6,8.6-4.9,8.6c-2.633,0-4.583-1.733-5.85-5.2c-0.767-2.133-1.15-4.1-1.15-5.899
			c0-0.634,0.217-1.084,0.65-1.351C867.167,669.884,869.65,669.684,873.45,669.95z"/>
	</g>
	
		<line fill-rule="evenodd" clip-rule="evenodd" fill="none" stroke="#FF0000" stroke-width="3" stroke-linecap="round" stroke-linejoin="round" stroke-miterlimit="3" x1="508.702" y1="829.05" x2="689.293" y2="829.05"/>
	<rect x="59.95" y="29.651" fill="none" width="227.1" height="249.4"/>
	<text transform="matrix(1 0 0 1 77.2007 64.9614)"><tspan x="0" y="0" fill="#33CCFF" font-family="'SegoeUI-SemiBold'" font-size="45">Nuts</tspan><tspan x="100.398" y="0" font-family="'SegoeUI-SemiBold'" font-size="45"> </tspan><tspan x="113.759" y="0" fill="#FF0000" font-family="'SegoeUI-SemiBold'" font-size="45">and</tspan><tspan x="193.589" y="0" font-family="'SegoeUI-SemiBold'" font-size="45"> </tspan><tspan x="43.584" y="61.85" fill="#FFCD01" font-family="'SegoeUI-SemiBold'" font-size="45">Bolts</tspan><tspan x="-0.012" y="123.7" fill="#FF0000" font-family="'SegoeUI-SemiBold'" font-size="45">of</tspan><tspan x="44.354" y="123.7" font-family="'SegoeUI-SemiBold'" font-size="45"> </tspan><tspan x="57.714" y="123.7" fill="#009900" font-family="'SegoeUI-SemiBold'" font-size="45">Charts</tspan><tspan x="193.601" y="123.7" font-family="'SegoeUI-SemiBold'" font-size="45"> </tspan><tspan x="35.257" y="185.55" fill="#009900" font-family="'SegoeUI-SemiBold'" font-size="45">Types</tspan></text>
	<g>
		<g>
			<g>
				<path fill-rule="evenodd" clip-rule="evenodd" d="M736.25,41.7c0.267,0.267,0.4,0.566,0.4,0.9c0,0.333-0.134,0.617-0.4,0.85
					c-0.233,0.267-0.517,0.4-0.85,0.4c-0.334,0-0.634-0.133-0.9-0.4c-0.233-0.233-0.35-0.517-0.35-0.85
					c0-0.333,0.116-0.633,0.35-0.9c0.267-0.233,0.566-0.35,0.9-0.35C735.733,41.35,736.017,41.467,736.25,41.7z M735.4,46.85
					c0.333,0,0.616,0.117,0.85,0.35c0.267,0.267,0.4,0.566,0.4,0.9c0,0.333-0.134,0.617-0.4,0.85c-0.233,0.267-0.517,0.4-0.85,0.4
					c-0.334,0-0.634-0.133-0.9-0.4c-0.233-0.233-0.35-0.517-0.35-0.85c0-0.333,0.116-0.633,0.35-0.9
					C734.767,46.967,735.066,46.85,735.4,46.85z M736.25,52.7c0.267,0.267,0.4,0.566,0.4,0.9c0,0.333-0.134,0.617-0.4,0.85
					c-0.233,0.267-0.517,0.4-0.85,0.4c-0.334,0-0.634-0.133-0.9-0.4c-0.233-0.233-0.35-0.517-0.35-0.85
					c0-0.333,0.116-0.633,0.35-0.9c0.267-0.233,0.566-0.35,0.9-0.35C735.733,52.35,736.017,52.467,736.25,52.7z M736.25,58.2
					c0.267,0.267,0.4,0.566,0.4,0.9c0,0.333-0.134,0.617-0.4,0.85c-0.233,0.267-0.517,0.4-0.85,0.4c-0.334,0-0.634-0.133-0.9-0.4
					c-0.233-0.233-0.35-0.517-0.35-0.85c0-0.333,0.116-0.633,0.35-0.9c0.267-0.233,0.566-0.35,0.9-0.35
					C735.733,57.85,736.017,57.967,736.25,58.2z M736.25,63.7c0.267,0.267,0.4,0.566,0.4,0.9c0,0.333-0.134,0.617-0.4,0.85
					c-0.233,0.267-0.517,0.4-0.85,0.4c-0.334,0-0.634-0.133-0.9-0.4c-0.233-0.233-0.35-0.517-0.35-0.85
					c0-0.333,0.116-0.633,0.35-0.9c0.267-0.233,0.566-0.35,0.9-0.35C735.733,63.35,736.017,63.467,736.25,63.7z M736.25,69.2
					c0.267,0.267,0.4,0.566,0.4,0.9c0,0.333-0.134,0.617-0.4,0.85c-0.233,0.267-0.517,0.4-0.85,0.4c-0.334,0-0.634-0.133-0.9-0.4
					c-0.233-0.233-0.35-0.517-0.35-0.85c0-0.333,0.116-0.633,0.35-0.9c0.267-0.233,0.566-0.35,0.9-0.35
					C735.733,68.85,736.017,68.967,736.25,69.2z M736.25,74.7c0.267,0.267,0.4,0.566,0.4,0.9c0,0.333-0.134,0.617-0.4,0.85
					c-0.233,0.267-0.517,0.4-0.85,0.4c-0.334,0-0.634-0.133-0.9-0.4c-0.233-0.233-0.35-0.517-0.35-0.85
					c0-0.333,0.116-0.633,0.35-0.9c0.267-0.233,0.566-0.35,0.9-0.35C735.733,74.35,736.017,74.467,736.25,74.7z M735.4,79.85
					c0.333,0,0.616,0.117,0.85,0.35c0.267,0.267,0.4,0.566,0.4,0.9c0,0.333-0.134,0.617-0.4,0.85c-0.233,0.267-0.517,0.4-0.85,0.4
					c-0.334,0-0.634-0.133-0.9-0.4c-0.233-0.233-0.35-0.517-0.35-0.85c0-0.333,0.116-0.633,0.35-0.9
					C734.767,79.967,735.066,79.85,735.4,79.85z M736.25,127.45c0.267,0.267,0.4,0.566,0.4,0.9c0,0.333-0.134,0.617-0.4,0.85
					c-0.233,0.267-0.517,0.4-0.85,0.4c-0.334,0-0.634-0.133-0.9-0.4c-0.233-0.233-0.35-0.517-0.35-0.85
					c0-0.333,0.116-0.633,0.35-0.9c0.267-0.233,0.566-0.35,0.9-0.35C735.733,127.1,736.017,127.217,736.25,127.45z M736.25,132.95
					c0.267,0.267,0.4,0.566,0.4,0.9c0,0.333-0.134,0.617-0.4,0.85c-0.233,0.267-0.517,0.4-0.85,0.4c-0.334,0-0.634-0.133-0.9-0.4
					c-0.233-0.233-0.35-0.517-0.35-0.85c0-0.333,0.116-0.633,0.35-0.9c0.267-0.233,0.566-0.35,0.9-0.35
					C735.733,132.6,736.017,132.717,736.25,132.95z M736.25,138.45c0.267,0.267,0.4,0.566,0.4,0.9c0,0.333-0.134,0.617-0.4,0.85
					c-0.233,0.267-0.517,0.4-0.85,0.4c-0.334,0-0.634-0.133-0.9-0.4c-0.233-0.233-0.35-0.517-0.35-0.85
					c0-0.333,0.116-0.633,0.35-0.9c0.267-0.233,0.566-0.35,0.9-0.35C735.733,138.1,736.017,138.217,736.25,138.45z M736.25,143.95
					c0.267,0.267,0.4,0.566,0.4,0.9c0,0.333-0.134,0.617-0.4,0.85c-0.233,0.267-0.517,0.4-0.85,0.4c-0.334,0-0.634-0.133-0.9-0.4
					c-0.233-0.233-0.35-0.517-0.35-0.85c0-0.333,0.116-0.633,0.35-0.9c0.267-0.233,0.566-0.35,0.9-0.35
					C735.733,143.6,736.017,143.717,736.25,143.95z M736.25,149.45c0.267,0.267,0.4,0.566,0.4,0.9c0,0.333-0.134,0.617-0.4,0.85
					c-0.233,0.267-0.517,0.4-0.85,0.4c-0.334,0-0.634-0.133-0.9-0.4c-0.233-0.233-0.35-0.517-0.35-0.85
					c0-0.333,0.116-0.633,0.35-0.9c0.267-0.233,0.566-0.35,0.9-0.35C735.733,149.1,736.017,149.217,736.25,149.45z M735.4,157.1
					c-0.334,0-0.634-0.133-0.9-0.4c-0.233-0.233-0.35-0.517-0.35-0.85c0-0.333,0.116-0.633,0.35-0.9
					c0.267-0.233,0.566-0.35,0.9-0.35c0.333,0,0.616,0.117,0.85,0.35c0.267,0.267,0.4,0.566,0.4,0.9c0,0.333-0.134,0.617-0.4,0.85
					C736.017,156.967,735.733,157.1,735.4,157.1z M736.25,160.45c0.267,0.267,0.4,0.566,0.4,0.9c0,0.333-0.134,0.617-0.4,0.85
					c-0.233,0.267-0.517,0.4-0.85,0.4c-0.334,0-0.634-0.133-0.9-0.4c-0.233-0.233-0.35-0.517-0.35-0.85
					c0-0.333,0.116-0.633,0.35-0.9c0.267-0.233,0.566-0.35,0.9-0.35C735.733,160.1,736.017,160.217,736.25,160.45z"/>
				
					<path fill-rule="evenodd" clip-rule="evenodd" fill="none" stroke="#000000" stroke-width="2.5" stroke-linecap="round" stroke-linejoin="round" stroke-miterlimit="3" d="
					M725.55,39.65h19.7 M727.3,165.65h16.2"/>
			</g>
		</g>
		<g>
			<g>
				
					<path fill-rule="evenodd" clip-rule="evenodd" fill="none" stroke="#009900" stroke-width="2.5" stroke-linecap="round" stroke-linejoin="round" stroke-miterlimit="3" d="
					M750.95,82.85v6.4v13.4v0.25v6.85v9v9.6H739.4h-9.851h-8.7v-0.5v-8.3v-7.05v-9.6V94V82.85h12.75h7.351h7.75H750.95z
					 M737.3,102.9h4.45h8.75l0.45-0.25 M750.5,102.9h0.45 M729.45,102.9h4.649h3.2 M720.85,102.9h8.601"/>
				
					<path fill-rule="evenodd" clip-rule="evenodd" fill="none" stroke="#009900" stroke-width="1.5" stroke-linecap="round" stroke-linejoin="round" stroke-miterlimit="3" d="
					M737.3,102.9l13.65-13.65 M739.4,128.35l11.55-9.6 M729.55,128.35l21.4-18.6 M729.45,102.9l19.25-20.05 M720.85,119.55
					l20.9-16.65 M720.85,127.85l29.65-24.95 M722.1,101.4l18.851-18.55 M720.85,94l12.75-11.15 M720.85,112.5l13.25-9.6"/>
			</g>
		</g>
		<g>
			<g>
				<path fill-rule="evenodd" clip-rule="evenodd" d="M779.35,45.9c0.267,0.267,0.4,0.567,0.4,0.9c0,0.333-0.134,0.617-0.4,0.85
					c-0.233,0.267-0.517,0.4-0.85,0.4s-0.634-0.133-0.9-0.4c-0.233-0.233-0.35-0.517-0.35-0.85c0-0.333,0.116-0.633,0.35-0.9
					c0.267-0.233,0.567-0.35,0.9-0.35S779.116,45.667,779.35,45.9z M779.35,51.4c0.267,0.267,0.4,0.567,0.4,0.9
					c0,0.333-0.134,0.617-0.4,0.85c-0.233,0.267-0.517,0.4-0.85,0.4s-0.634-0.133-0.9-0.4c-0.233-0.233-0.35-0.517-0.35-0.85
					c0-0.333,0.116-0.633,0.35-0.9c0.267-0.233,0.567-0.35,0.9-0.35S779.116,51.167,779.35,51.4z M778.5,59.05
					c-0.333,0-0.634-0.133-0.9-0.4c-0.233-0.233-0.35-0.517-0.35-0.85c0-0.333,0.116-0.633,0.35-0.9
					c0.267-0.233,0.567-0.35,0.9-0.35s0.616,0.117,0.85,0.35c0.267,0.267,0.4,0.567,0.4,0.9c0,0.333-0.134,0.617-0.4,0.85
					C779.116,58.917,778.833,59.05,778.5,59.05z M779.35,62.4c0.267,0.267,0.4,0.567,0.4,0.9c0,0.333-0.134,0.617-0.4,0.85
					c-0.233,0.267-0.517,0.4-0.85,0.4s-0.634-0.133-0.9-0.4c-0.233-0.233-0.35-0.517-0.35-0.85c0-0.333,0.116-0.633,0.35-0.9
					c0.267-0.233,0.567-0.35,0.9-0.35S779.116,62.167,779.35,62.4z M779.35,111.9c0.267,0.267,0.4,0.567,0.4,0.9
					c0,0.333-0.134,0.617-0.4,0.85c-0.233,0.267-0.517,0.4-0.85,0.4s-0.634-0.133-0.9-0.4c-0.233-0.233-0.35-0.517-0.35-0.85
					c0-0.333,0.116-0.633,0.35-0.9c0.267-0.233,0.567-0.35,0.9-0.35S779.116,111.667,779.35,111.9z M779.35,117.4
					c0.267,0.267,0.4,0.567,0.4,0.9c0,0.333-0.134,0.617-0.4,0.85c-0.233,0.267-0.517,0.4-0.85,0.4s-0.634-0.133-0.9-0.4
					c-0.233-0.233-0.35-0.517-0.35-0.85c0-0.333,0.116-0.633,0.35-0.9c0.267-0.233,0.567-0.35,0.9-0.35
					S779.116,117.167,779.35,117.4z M779.35,122.9c0.267,0.267,0.4,0.567,0.4,0.9c0,0.333-0.134,0.617-0.4,0.85
					c-0.233,0.267-0.517,0.4-0.85,0.4s-0.634-0.133-0.9-0.4c-0.233-0.233-0.35-0.517-0.35-0.85c0-0.333,0.116-0.633,0.35-0.9
					c0.267-0.233,0.567-0.35,0.9-0.35S779.116,122.667,779.35,122.9z M777.6,128.4c0.267-0.233,0.567-0.35,0.9-0.35
					s0.616,0.117,0.85,0.35c0.267,0.267,0.4,0.567,0.4,0.9c0,0.333-0.134,0.617-0.4,0.85c-0.233,0.267-0.517,0.4-0.85,0.4
					s-0.634-0.133-0.9-0.4c-0.233-0.233-0.35-0.517-0.35-0.85C777.25,128.967,777.366,128.667,777.6,128.4z"/>
				
					<path fill-rule="evenodd" clip-rule="evenodd" fill="none" stroke="#000000" stroke-width="2.5" stroke-linecap="round" stroke-linejoin="round" stroke-miterlimit="3" d="
					M770.05,43.85h16.9 M770.7,134.5h15.6"/>
			</g>
		</g>
		<g>
			<g>
				<path fill-rule="evenodd" clip-rule="evenodd" d="M822.25,32.25c0.267,0.267,0.4,0.567,0.4,0.9c0,0.333-0.134,0.617-0.4,0.85
					c-0.233,0.267-0.517,0.4-0.85,0.4c-0.334,0-0.634-0.133-0.9-0.4c-0.233-0.233-0.35-0.517-0.35-0.85
					c0-0.333,0.116-0.633,0.35-0.9c0.267-0.233,0.566-0.35,0.9-0.35C821.733,31.9,822.017,32.017,822.25,32.25z M822.25,37.75
					c0.267,0.267,0.4,0.567,0.4,0.9c0,0.333-0.134,0.617-0.4,0.85c-0.233,0.267-0.517,0.4-0.85,0.4c-0.334,0-0.634-0.133-0.9-0.4
					c-0.233-0.233-0.35-0.517-0.35-0.85c0-0.333,0.116-0.633,0.35-0.9c0.267-0.233,0.566-0.35,0.9-0.35
					C821.733,37.4,822.017,37.517,822.25,37.75z M822.25,43.25c0.267,0.267,0.4,0.567,0.4,0.9c0,0.333-0.134,0.617-0.4,0.85
					c-0.233,0.267-0.517,0.4-0.85,0.4c-0.334,0-0.634-0.133-0.9-0.4c-0.233-0.233-0.35-0.517-0.35-0.85
					c0-0.333,0.116-0.633,0.35-0.9c0.267-0.233,0.566-0.35,0.9-0.35C821.733,42.9,822.017,43.017,822.25,43.25z M822.25,48.75
					c0.267,0.267,0.4,0.567,0.4,0.9c0,0.333-0.134,0.617-0.4,0.85c-0.233,0.267-0.517,0.4-0.85,0.4c-0.334,0-0.634-0.133-0.9-0.4
					c-0.233-0.233-0.35-0.517-0.35-0.85c0-0.333,0.116-0.633,0.35-0.9c0.267-0.233,0.566-0.35,0.9-0.35
					C821.733,48.4,822.017,48.517,822.25,48.75z M820.5,54.25c0.267-0.233,0.566-0.35,0.9-0.35c0.333,0,0.616,0.117,0.85,0.35
					c0.267,0.267,0.4,0.567,0.4,0.9c0,0.333-0.134,0.617-0.4,0.85c-0.233,0.267-0.517,0.4-0.85,0.4c-0.334,0-0.634-0.133-0.9-0.4
					c-0.233-0.233-0.35-0.517-0.35-0.85C820.15,54.817,820.267,54.517,820.5,54.25z M822.25,59.75c0.267,0.267,0.4,0.567,0.4,0.9
					c0,0.333-0.134,0.617-0.4,0.85c-0.233,0.267-0.517,0.4-0.85,0.4c-0.334,0-0.634-0.133-0.9-0.4
					c-0.233-0.233-0.35-0.517-0.35-0.85c0-0.333,0.116-0.633,0.35-0.9c0.267-0.233,0.566-0.35,0.9-0.35
					C821.733,59.4,822.017,59.517,822.25,59.75z M822.25,65.25c0.267,0.267,0.4,0.567,0.4,0.9c0,0.333-0.134,0.617-0.4,0.85
					c-0.233,0.267-0.517,0.4-0.85,0.4c-0.334,0-0.634-0.133-0.9-0.4c-0.233-0.233-0.35-0.517-0.35-0.85
					c0-0.333,0.116-0.633,0.35-0.9c0.267-0.233,0.566-0.35,0.9-0.35C821.733,64.9,822.017,65.017,822.25,65.25z M822.25,70.75
					c0.267,0.267,0.4,0.567,0.4,0.9c0,0.333-0.134,0.617-0.4,0.85c-0.233,0.267-0.517,0.4-0.85,0.4c-0.334,0-0.634-0.133-0.9-0.4
					c-0.233-0.233-0.35-0.517-0.35-0.85c0-0.333,0.116-0.633,0.35-0.9c0.267-0.233,0.566-0.35,0.9-0.35
					C821.733,70.4,822.017,70.517,822.25,70.75z M822.9,152.4c0.267,0.267,0.399,0.567,0.399,0.9c0,0.333-0.133,0.617-0.399,0.85
					c-0.233,0.267-0.517,0.4-0.851,0.4c-0.333,0-0.633-0.133-0.899-0.4c-0.233-0.233-0.351-0.517-0.351-0.85
					c0-0.333,0.117-0.633,0.351-0.9c0.267-0.233,0.566-0.35,0.899-0.35C822.384,152.05,822.667,152.167,822.9,152.4z M822.9,157.9
					c0.267,0.267,0.399,0.567,0.399,0.9c0,0.333-0.133,0.617-0.399,0.85c-0.233,0.267-0.517,0.4-0.851,0.4
					c-0.333,0-0.633-0.133-0.899-0.4c-0.233-0.233-0.351-0.517-0.351-0.85c0-0.333,0.117-0.633,0.351-0.9
					c0.267-0.233,0.566-0.35,0.899-0.35C822.384,157.55,822.667,157.667,822.9,157.9z M822.8,163.4c0.267,0.267,0.4,0.567,0.4,0.9
					c0,0.333-0.134,0.617-0.4,0.85c-0.233,0.267-0.517,0.4-0.85,0.4c-0.334,0-0.634-0.133-0.9-0.4
					c-0.233-0.233-0.35-0.517-0.35-0.85c0-0.333,0.116-0.633,0.35-0.9c0.267-0.233,0.566-0.35,0.9-0.35
					C822.283,163.05,822.566,163.167,822.8,163.4z M822.8,168.9c0.267,0.267,0.4,0.567,0.4,0.9c0,0.333-0.134,0.617-0.4,0.85
					c-0.233,0.267-0.517,0.4-0.85,0.4c-0.334,0-0.634-0.133-0.9-0.4c-0.233-0.233-0.35-0.517-0.35-0.85
					c0-0.333,0.116-0.633,0.35-0.9c0.267-0.233,0.566-0.35,0.9-0.35C822.283,168.55,822.566,168.667,822.8,168.9z M822.7,174.4
					c0.267,0.267,0.399,0.567,0.399,0.9c0,0.333-0.133,0.617-0.399,0.85c-0.233,0.267-0.517,0.4-0.851,0.4
					c-0.333,0-0.633-0.133-0.899-0.4c-0.233-0.233-0.351-0.517-0.351-0.85c0-0.333,0.117-0.633,0.351-0.9
					c0.267-0.233,0.566-0.35,0.899-0.35C822.184,174.05,822.467,174.167,822.7,174.4z M822.7,181.65
					c-0.233,0.267-0.517,0.4-0.851,0.4c-0.333,0-0.633-0.133-0.899-0.4c-0.233-0.233-0.351-0.517-0.351-0.85
					c0-0.333,0.117-0.633,0.351-0.9c0.267-0.233,0.566-0.35,0.899-0.35c0.334,0,0.617,0.117,0.851,0.35
					c0.267,0.267,0.399,0.567,0.399,0.9C823.1,181.133,822.967,181.417,822.7,181.65z M821.75,185.05c0.333,0,0.616,0.117,0.85,0.35
					c0.267,0.267,0.4,0.567,0.4,0.9c0,0.333-0.134,0.617-0.4,0.85c-0.233,0.267-0.517,0.4-0.85,0.4s-0.634-0.133-0.9-0.4
					c-0.233-0.233-0.35-0.517-0.35-0.85c0-0.333,0.116-0.633,0.35-0.9C821.116,185.167,821.417,185.05,821.75,185.05z"/>
				
					<path fill-rule="evenodd" clip-rule="evenodd" fill="none" stroke="#000000" stroke-width="2.5" stroke-linecap="round" stroke-linejoin="round" stroke-miterlimit="3" d="
					M811.55,30.2h19.7 M813.65,192.95h16.199"/>
			</g>
		</g>
		<g>
			<g>
				<path fill-rule="evenodd" clip-rule="evenodd" d="M861.7,50.35c0.267,0.267,0.399,0.566,0.399,0.9s-0.133,0.617-0.399,0.85
					c-0.233,0.267-0.517,0.4-0.851,0.4c-0.333,0-0.633-0.133-0.899-0.4c-0.233-0.233-0.351-0.517-0.351-0.85s0.117-0.633,0.351-0.9
					c0.267-0.233,0.566-0.35,0.899-0.35C861.184,50,861.467,50.117,861.7,50.35z M860.85,58c-0.333,0-0.633-0.133-0.899-0.4
					c-0.233-0.233-0.351-0.517-0.351-0.85s0.117-0.633,0.351-0.9c0.267-0.233,0.566-0.35,0.899-0.35c0.334,0,0.617,0.117,0.851,0.35
					c0.267,0.267,0.399,0.566,0.399,0.9s-0.133,0.617-0.399,0.85C861.467,57.867,861.184,58,860.85,58z M861.7,61.35
					c0.267,0.267,0.399,0.566,0.399,0.9s-0.133,0.617-0.399,0.85c-0.233,0.267-0.517,0.4-0.851,0.4c-0.333,0-0.633-0.133-0.899-0.4
					c-0.233-0.233-0.351-0.517-0.351-0.85s0.117-0.633,0.351-0.9c0.267-0.233,0.566-0.35,0.899-0.35
					C861.184,61,861.467,61.117,861.7,61.35z M859.6,67.75c0-0.333,0.117-0.633,0.351-0.9c0.267-0.233,0.566-0.35,0.899-0.35
					c0.334,0,0.617,0.117,0.851,0.35c0.267,0.267,0.399,0.566,0.399,0.9s-0.133,0.617-0.399,0.85c-0.233,0.267-0.517,0.4-0.851,0.4
					c-0.333,0-0.633-0.133-0.899-0.4C859.717,68.367,859.6,68.083,859.6,67.75z M859.6,73.25c0-0.333,0.117-0.633,0.351-0.9
					c0.267-0.233,0.566-0.35,0.899-0.35c0.334,0,0.617,0.117,0.851,0.35c0.267,0.267,0.399,0.566,0.399,0.9s-0.133,0.617-0.399,0.85
					c-0.233,0.267-0.517,0.4-0.851,0.4c-0.333,0-0.633-0.133-0.899-0.4C859.717,73.867,859.6,73.583,859.6,73.25z M861.7,111.05
					c0.267,0.267,0.399,0.567,0.399,0.9c0,0.333-0.133,0.617-0.399,0.85c-0.233,0.267-0.517,0.4-0.851,0.4
					c-0.333,0-0.633-0.133-0.899-0.4c-0.233-0.233-0.351-0.517-0.351-0.85c0-0.333,0.117-0.633,0.351-0.9
					c0.267-0.233,0.566-0.35,0.899-0.35C861.184,110.7,861.467,110.817,861.7,111.05z M859.6,117.45c0-0.333,0.117-0.633,0.351-0.9
					c0.267-0.233,0.566-0.35,0.899-0.35c0.334,0,0.617,0.117,0.851,0.35c0.267,0.267,0.399,0.567,0.399,0.9
					c0,0.333-0.133,0.617-0.399,0.85c-0.233,0.267-0.517,0.4-0.851,0.4c-0.333,0-0.633-0.133-0.899-0.4
					C859.717,118.067,859.6,117.783,859.6,117.45z M859.95,122.05c0.267-0.233,0.566-0.35,0.899-0.35
					c0.334,0,0.617,0.117,0.851,0.35c0.267,0.267,0.399,0.567,0.399,0.9c0,0.333-0.133,0.617-0.399,0.85
					c-0.233,0.267-0.517,0.4-0.851,0.4c-0.333,0-0.633-0.133-0.899-0.4c-0.233-0.233-0.351-0.517-0.351-0.85
					C859.6,122.617,859.717,122.317,859.95,122.05z M861.7,127.55c0.267,0.267,0.399,0.567,0.399,0.9
					c0,0.333-0.133,0.617-0.399,0.85c-0.233,0.267-0.517,0.4-0.851,0.4c-0.333,0-0.633-0.133-0.899-0.4
					c-0.233-0.233-0.351-0.517-0.351-0.85c0-0.333,0.117-0.633,0.351-0.9c0.267-0.233,0.566-0.35,0.899-0.35
					C861.184,127.2,861.467,127.317,861.7,127.55z M861.7,134.8c-0.233,0.267-0.517,0.4-0.851,0.4c-0.333,0-0.633-0.133-0.899-0.4
					c-0.233-0.233-0.351-0.517-0.351-0.85c0-0.333,0.117-0.633,0.351-0.9c0.267-0.233,0.566-0.35,0.899-0.35
					c0.334,0,0.617,0.117,0.851,0.35c0.267,0.267,0.399,0.567,0.399,0.9C862.1,134.283,861.967,134.567,861.7,134.8z M859.6,139.45
					c0-0.333,0.117-0.633,0.351-0.9c0.267-0.233,0.566-0.35,0.899-0.35c0.334,0,0.617,0.117,0.851,0.35
					c0.267,0.267,0.399,0.567,0.399,0.9c0,0.333-0.133,0.617-0.399,0.85c-0.233,0.267-0.517,0.4-0.851,0.4
					c-0.333,0-0.633-0.133-0.899-0.4C859.717,140.067,859.6,139.783,859.6,139.45z"/>
				
					<path fill-rule="evenodd" clip-rule="evenodd" fill="none" stroke="#000000" stroke-width="2.5" stroke-linecap="round" stroke-linejoin="round" stroke-miterlimit="3" d="
					M852.4,48.3H869.3 M853.05,142.45h15.601"/>
			</g>
		</g>
		<g>
			<g>
				
					<path fill-rule="evenodd" clip-rule="evenodd" fill="none" stroke="#33CCFF" stroke-width="2.5" stroke-linecap="round" stroke-linejoin="round" stroke-miterlimit="3" d="
					M762.8,69.25h12.75h7.351h7.75h2.25v5.5v11.4v0.2v5.85v7.7v8.2H781.35h-9.85h-8.7v-0.45v-7.05v-6.05v-8.2V78.8V69.25z
					 M771.4,86.35h4.649h3.2h4.45h8.75l0.45-0.2 M792.45,86.35h0.45 M771.4,86.35H762.8"/>
				
					<path fill-rule="evenodd" clip-rule="evenodd" fill="none" stroke="#33CCFF" stroke-width="1.5" stroke-linecap="round" stroke-linejoin="round" stroke-miterlimit="3" d="
					M779.25,86.35l13.65-11.6 M771.4,86.35l19.25-17.1 M764.05,85.1L782.9,69.25 M762.8,94.55l13.25-8.2 M762.8,78.8l12.75-9.55
					 M781.35,108.1l11.551-8.2 M762.8,100.6l20.9-14.25 M762.8,107.65l29.65-21.3 M771.5,108.1l21.4-15.9"/>
			</g>
		</g>
		<g>
			<g>
				
					<path fill-rule="evenodd" clip-rule="evenodd" fill="none" stroke="#FFCC00" stroke-width="2.5" stroke-linecap="round" stroke-linejoin="round" stroke-miterlimit="3" d="
					M805.5,88.3v-6v-7.75h9.7h7.35h7.15h5.899v1.65v5.85v12.5v0.25l-0.1,0.05l0.05,25.4l0.05,13.8v6.05v8.05H816.45H805.5v-5.8
					v-7.05V129v-15.3 M805.5,93.85v7.7h17.2h3.35h4.05h5.051 M805.5,93.85v-5.4 M805.5,113.55v-0.7v-5.2v-6.1"/>
				
					<path fill-rule="evenodd" clip-rule="evenodd" fill="none" stroke="#FFCC00" stroke-width="1.5" stroke-linecap="round" stroke-linejoin="round" stroke-miterlimit="3" d="
					M829.7,74.55l0.399-0.35 M835.6,82.05l0.25-0.2 M805.5,135.3l-0.4,0.3 M826.05,101.55l9.55-7 M830.1,101.55l0.301-0.25
					 M816.45,148.15l19.149-14.1 M826.2,147.4l9.399-7.3 M810.45,101.1L835.6,82.05 M817.7,101.25l17.3-12.8 M805.5,88.45V88.3
					l17.05-13.75 M805.5,113.7v-0.15l17.2-12 M805.5,112.85l-0.4,0.35 M805.5,107.65l-0.35,0.2 M805.5,129l-0.4,0.3 M806.15,147.65
					l29.1-21.1 M805.85,121.25l24.25-19.7 M805.5,129l29.75-24.3 M805.5,135.3l29.75-22.85 M805.5,93.85l24.2-19.3 M806.1,99
					l29.5-22.8 M805.5,142.35l30.05-22.1 M805.5,107.65l9.3-5.8 M805.5,82.3l9.7-7.75"/>
			</g>
		</g>
		<g>
			<g>
				
					<path fill-rule="evenodd" clip-rule="evenodd" fill="none" stroke="#FF0000" stroke-width="2.5" stroke-linecap="round" stroke-linejoin="round" stroke-miterlimit="3" d="
					M845.75,77.7h12.75h7.35h7.75h2.25v7.05V99.6v0.25v7.6v1.35h-1.399h-8.65h-9.3h-8.6h-2.15v-8.95v-9.8V77.7z M875.85,99.6
					l-0.449,0.25h0.449 M854.35,99.85H859h3.2 M866.65,99.85h-4.45 M875.4,99.85h-8.75 M854.35,99.85h-8.6"/>
				
					<path fill-rule="evenodd" clip-rule="evenodd" fill="none" stroke="#FF0000" stroke-width="1.5" stroke-linecap="round" stroke-linejoin="round" stroke-miterlimit="3" d="
					M847,98.2l18.85-20.5 M845.75,90.05L858.5,77.7 M874.45,108.8l1.399-1.35 M862.2,99.85l13.649-15.1 M856.5,108.8l10.15-8.95
					 M865.8,108.8l9.601-8.95 M847.9,108.8l11.1-8.95 M854.35,99.85L873.6,77.7"/>
			</g>
		</g>
	</g>
	<g>
		<g>
			
				<path fill-rule="evenodd" clip-rule="evenodd" fill="none" stroke="#009900" stroke-width="3" stroke-linecap="round" stroke-linejoin="round" stroke-miterlimit="3" d="
				M717.05,335.05h10.601h8.649h8.65h7.399h7.101h7.75h8.35h9.25h9.65h9.2h9h10.8v7.9v7.95v8.05v6.45v7.6h-9.25h-8.05H798.1H787h-9
				h-8.65H760.7h-15.45h-7.75h-6.45h-7h-7v-1.4v-8.35V354v-9.5V335.05z M717.05,344.5l10.601-9.45 M737.5,373l38.05-37.95
				 M731.05,373l36.15-37.95 M745.25,373l39.55-37.95 M760.7,373l42.95-37.95 M753,372.7l41.45-37.65 M717.05,363.25l27.9-28.2
				 M717.05,371.6l35.3-36.55 M724.05,373l35.4-37.95 M717.05,354l19.25-18.95 M814.2,373l9.25-7.6 M778,373l43.6-36.65 M798.1,373
				l25.351-22.1 M806.15,373l17.3-14.05 M787,373l36.45-30.05 M769.35,373l43.301-37.95"/>
			
				<path fill-rule="evenodd" clip-rule="evenodd" fill="none" stroke="#FFCC00" stroke-width="3" stroke-linecap="round" stroke-linejoin="round" stroke-miterlimit="3" d="
				M717.05,376.15h12.75h8.95h7.75h8.95h7.399H770h7.7h6.8h14.8h6.5h7.45h7.4h2.449v6.9v10.5v10.8v10.85v10.5v10.5v9.9v10.5v15.75
				h-14.5h-8.05H781.7H772.1h-9.25h-9.3h-6.8h-7.4h-8.05h-14.25V470.2v-6.8v-8.95v-9.6v-8.3v-8.65v-9.6v-8.35v-9.9v-11.1V376.15z
				 M717.05,388.95l12.75-12.8 M762.85,472.35l60.25-68 M772.1,472.35l51-57.149 M781.7,472.35L823.1,425.7 M792.5,470.85
				l30.6-34.65 M800.55,472.35l22.55-26.25 M808.6,472.35l14.5-15.75 M717.05,418.3l38.4-42.15 M717.05,427.9l45.8-51.75
				 M717.05,436.55l52.95-60.4 M717.05,444.85l60.65-68.7 M753.55,472.35l69.55-78.8 M717.05,454.45l67.45-78.3 M717.05,470.2
				l82.25-94.05 M717.05,463.4l74.55-85.95 M724.2,471.15l81.6-95 M731.3,472.35l81.95-96.2 M739.35,472.35l81.301-96.2
				 M746.75,472.35l76.35-89.3 M717.05,409.95l29.45-33.8 M717.05,400.05l21.7-23.9"/>
			
				<path fill-rule="evenodd" clip-rule="evenodd" fill="none" stroke="#33CCFF" stroke-width="3" stroke-linecap="round" stroke-linejoin="round" stroke-miterlimit="3" d="
				M866.45,335.05h11.399h7.65v5.05v11.45v13v10.2v10.8v11.15v12.35v8.65v8.35v8.55h-12.25h-9h-10.2h-10.5H826.6v-4.55v-10.2V406.9
				v-11.75V384.3v-9.25V364.2v-11.1v-9.05v-9h12h7.75h8.95H866.45z M826.6,344.05l12-9 M826.6,384.3l51.25-49.25 M826.6,375.05
				l39.851-40 M826.6,364.2l28.7-29.15 M826.6,395.15l58.9-55.05 M826.6,353.1l19.75-18.05 M873.25,434.6l12.25-8.55 M854.05,434.6
				l31.45-25.55 M864.25,434.6l21.25-16.9 M843.55,434.6l41.95-37.9 M833.05,433.15l52.45-47.6 M826.6,430.05l58.9-55.3
				 M826.6,419.85l58.9-55.3 M826.6,406.9l58.9-55.35"/>
			
				<path fill-rule="evenodd" clip-rule="evenodd" fill="none" stroke="#FF0000" stroke-width="3" stroke-linecap="round" stroke-linejoin="round" stroke-miterlimit="3" d="
				M863.05,437.75h9.55h9.301h3.6v5.6v9.55v9.3v10.149h-10.75h-9.55h-8.65H847.9h-7.45h-6.95h-6.9V460.95v-9.25v-7v-6.95h8.301h6.8
				h6.5h7.7H863.05z M826.6,444.7l8.301-6.95 M865.2,472.35l20.3-19.45 M874.75,472.35L885.5,462.2 M847.9,472.35l34-34.6
				 M840.45,472.35l32.149-34.6 M826.6,472.35l29.301-34.6 M833.5,472.35l29.55-34.6 M856.55,472.35l28.95-29 M826.6,460.95
				l21.601-23.2 M826.6,451.7l15.101-13.95"/>
		</g>
	</g>
	<g>
		<g>
			
				<path fill-rule="evenodd" clip-rule="evenodd" fill="none" stroke="#FF0000" stroke-width="2.5" stroke-linecap="round" stroke-linejoin="round" stroke-miterlimit="3" d="
				M418.05,91.1v57.7v30.95h-7.15h-7.45v-14.8v-11.9v-23v-22.8v-11.9v-22.8V61.6V50.55h9.8h4.8v5.85V91.1z M410.9,179.75l6.7-7.15
				 M403.9,118.5l13.4-15 M403.45,164.95l14.6-16.15 M403.9,176.2l13.4-15 M403.45,130.05l14.15-15.15 M403.45,153.05l14.15-15.15
				 M403.9,141.5l13.4-15 M403.45,72.55l14.6-16.15 M403.45,107.25l14.6-16.15 M403.9,83.8l13.4-15 M403.45,95.35L417.6,80.2
				 M403.45,61.6l9.8-11.05"/>
		</g>
		<g>
			
				<path fill-rule="evenodd" clip-rule="evenodd" fill="none" stroke="#FFCC00" stroke-width="2.5" stroke-linecap="round" stroke-linejoin="round" stroke-miterlimit="3" d="
				M383.1,72.55v-7h6.35h8.25V91.1v57.7v30.95h-7.15h-7.45v-14.8v-11.9v-23v-22.8v-11.9V72.55l6.35-7 M383.1,95.35l14.15-15.15
				 M383.55,83.8l13.4-15 M383.55,118.5l13.4-15 M383.1,130.05l14.15-15.15 M383.55,141.5l13.4-15 M383.1,164.95l14.6-16.15
				 M383.55,176.2l13.4-15 M390.55,179.75l6.7-7.15 M383.1,153.05l14.15-15.15 M383.1,107.25l14.6-16.15"/>
		</g>
		<g>
			
				<path fill-rule="evenodd" clip-rule="evenodd" fill="none" stroke="#009900" stroke-width="2.5" stroke-linecap="round" stroke-linejoin="round" stroke-miterlimit="3" d="
				M377.35,123.05v25.75v30.95h-7.15h-7.45v-14.8v-11.9v-23v-7h6.55H377.35z M370.2,179.75l6.7-7.15 M362.75,164.95l14.6-16.15
				 M363.2,176.2l13.4-15 M362.75,130.05l6.55-7 M363.2,141.5l13.4-15 M362.75,153.05l14.15-15.15"/>
		</g>
		<g>
			
				<path fill-rule="evenodd" clip-rule="evenodd" fill="none" stroke="#33CCFF" stroke-width="2.5" stroke-linecap="round" stroke-linejoin="round" stroke-miterlimit="3" d="
				M357,153.05v26.7h-7.15h-7.45v-14.8v-11.9h10.75H357z M349.85,179.75l6.7-7.15 M342.85,176.2l13.4-15 M342.4,164.95l10.75-11.9"
				/>
		</g>
		<g>
			
				<path fill-rule="evenodd" clip-rule="evenodd" fill="none" stroke="#009900" stroke-width="2.5" stroke-linecap="round" stroke-linejoin="round" stroke-miterlimit="3" d="
				M458.75,123.05v25.75v30.95h-7.15h-7.45v-14.8v-11.9v-23v-7h6.55H458.75z M451.6,179.75l6.7-7.15 M444.15,164.95l14.6-16.15
				 M444.6,176.2l13.4-15 M444.15,130.05l6.55-7 M444.6,141.5l13.4-15 M444.15,153.05l14.15-15.15"/>
		</g>
		<g>
			
				<path fill-rule="evenodd" clip-rule="evenodd" fill="none" stroke="#FFCC00" stroke-width="2.5" stroke-linecap="round" stroke-linejoin="round" stroke-miterlimit="3" d="
				M479.1,179.75h-7.15h-7.45V167.8h7.95h6.65V179.75z M464.95,176.2l7.5-8.4 M471.95,179.75l6.7-7.15"/>
		</g>
		<g>
			
				<path fill-rule="evenodd" clip-rule="evenodd" fill="none" stroke="#33CCFF" stroke-width="2.5" stroke-linecap="round" stroke-linejoin="round" stroke-miterlimit="3" d="
				M423.8,110.55h7.55h7.05v38.25v30.95h-7.15h-7.45v-14.8v-11.9v-23V110.55z M424.25,118.5l7.1-7.95 M423.8,130.05l14.15-15.15
				 M424.25,141.5l13.4-15 M423.8,164.95l14.6-16.15 M424.25,176.2l13.4-15 M431.25,179.75l6.7-7.15 M423.8,153.05l14.15-15.15"/>
		</g>
		<g>
			
				<path fill-rule="evenodd" clip-rule="evenodd" fill="none" stroke="#FF0000" stroke-width="2.5" stroke-linecap="round" stroke-linejoin="round" stroke-miterlimit="3" d="
				M322.5,176.2l4.85-5.4h-5.3v8.95h7.45l6.7-7.15 M327.35,170.8h9.3v8.95h-7.15"/>
		</g>
	</g>
	<g>
		<g>
			
				<path fill-rule="evenodd" clip-rule="evenodd" fill="none" stroke="#FFCC00" stroke-width="2.5" stroke-linecap="round" stroke-linejoin="round" stroke-miterlimit="3" d="
				M546.55,127.95v20.85v30.95h-14.6H516.8v-14.8v-11.9v-23v-2.1h4h21.55H546.55z M516.8,130.05l4-2.1 M531.95,179.75l13.649-7.15
				 M516.8,164.95l29.75-16.15 M517.7,176.2l27.3-15 M516.8,153.05l28.8-15.15 M517.7,141.5l24.649-13.55"/>
		</g>
		<g>
			
				<path fill-rule="evenodd" clip-rule="evenodd" fill="none" stroke="#009900" stroke-width="2.5" stroke-linecap="round" stroke-linejoin="round" stroke-miterlimit="3" d="
				M558.05,153.05v-3.95h7.5h21.7l0.55-0.3v0.3v30.65h-14.6h-15.15v-14.8V153.05l7.5-3.95 M573.2,179.75l13.649-7.15 M587.25,149.1
				h0.55 M558.95,176.2l27.3-15 M558.05,164.95l29.2-15.85"/>
		</g>
		<g>
			
				<path fill-rule="evenodd" clip-rule="evenodd" fill="none" stroke="#33CCFF" stroke-width="2.5" stroke-linecap="round" stroke-linejoin="round" stroke-miterlimit="3" d="
				M629.05,97.35v51.45v30.95h-14.6H599.3v-14.8v-11.9v-23v-22.8v-9.9h18.25H629.05z M614.45,179.75l13.649-7.15 M600.2,118.5
				l27.3-15 M599.3,164.95l29.75-16.15 M599.3,130.05l28.8-15.15 M599.3,153.05l28.8-15.15 M600.2,141.5l27.3-15 M600.2,176.2
				l27.3-15 M599.3,107.25l18.25-9.9"/>
		</g>
		<g>
			
				<path fill-rule="evenodd" clip-rule="evenodd" fill="none" stroke="#FF0000" stroke-width="2.5" stroke-linecap="round" stroke-linejoin="round" stroke-miterlimit="3" d="
				M670.3,55.5v0.9v34.7v57.7v30.95h-14.6h-15.15v-14.8v-11.9v-23v-22.8v-11.9v-22.8V61.6v-6.1h11.05H670.3z M655.7,179.75
				l13.649-7.15 M640.55,164.95l29.75-16.15 M640.55,130.05l28.8-15.15 M640.55,153.05l28.8-15.15 M641.45,141.5l27.3-15
				 M641.45,176.2l27.3-15 M641.45,118.5l27.3-15 M640.55,107.25L670.3,91.1 M641.45,83.8l27.3-15 M640.55,95.35l28.8-15.15
				 M640.55,72.55L670.3,56.4 M640.55,61.6l11.05-6.1"/>
		</g>
	</g>
	<g>
		<g>
			
				<polyline fill-rule="evenodd" clip-rule="evenodd" fill="none" stroke="#FF0000" stroke-width="3" stroke-linecap="round" stroke-linejoin="round" stroke-miterlimit="3" points="
				322.25,389.65 376.2,377.95 431.55,358.3 476.55,342.85 			"/>
			
				<polyline fill-rule="evenodd" clip-rule="evenodd" fill="none" stroke="#FFCC00" stroke-width="3" stroke-linecap="round" stroke-linejoin="round" stroke-miterlimit="3" points="
				324.65,467.05 379.5,448.3 433.9,448.3 475.15,440.8 			"/>
			
				<polyline fill-rule="evenodd" clip-rule="evenodd" fill="none" stroke="#33CCFF" stroke-width="3" stroke-linecap="round" stroke-linejoin="round" stroke-miterlimit="3" points="
				323.7,437.05 378.1,423.9 433.9,416.9 477.5,424.85 			"/>
			
				<polyline fill-rule="evenodd" clip-rule="evenodd" fill="none" stroke="#009900" stroke-width="3" stroke-linecap="round" stroke-linejoin="round" stroke-miterlimit="3" points="
				322.75,421.55 374.8,390.65 434.85,397.65 479.4,363.45 			"/>
		</g>
		<g>
			<path fill-rule="evenodd" clip-rule="evenodd" fill="#FF0000" d="M330,389.3c0,1.567-0.55,2.883-1.65,3.95
				c-1.1,1.1-2.417,1.65-3.95,1.65c-1.566,0-2.883-0.55-3.95-1.65c-1.1-1.067-1.65-2.383-1.65-3.95c0-1.533,0.55-2.85,1.65-3.95
				c1.066-1.1,2.383-1.65,3.95-1.65c1.533,0,2.85,0.55,3.95,1.65S330,387.767,330,389.3z"/>
		</g>
		<g>
			<path fill-rule="evenodd" clip-rule="evenodd" fill="#FF0000" d="M374.85,383.85c-1.567,0-2.9-0.55-4-1.65
				c-1.067-1.1-1.6-2.417-1.6-3.95c0-1.567,0.533-2.883,1.6-3.95c1.1-1.1,2.433-1.65,4-1.65c1.533,0,2.85,0.55,3.95,1.65
				c1.1,1.067,1.65,2.383,1.65,3.95c0,1.533-0.55,2.85-1.65,3.95C377.7,383.3,376.383,383.85,374.85,383.85z"/>
		</g>
		<g>
			<path fill-rule="evenodd" clip-rule="evenodd" fill="#FF0000" d="M435.5,362.25c-1.1,1.1-2.417,1.65-3.95,1.65
				c-1.566,0-2.883-0.55-3.95-1.65c-1.1-1.1-1.65-2.417-1.65-3.95c0-1.533,0.55-2.85,1.65-3.95c1.066-1.1,2.383-1.65,3.95-1.65
				c1.534,0,2.85,0.55,3.95,1.65s1.65,2.417,1.65,3.95C437.15,359.833,436.6,361.15,435.5,362.25z"/>
		</g>
		<g>
			<path fill-rule="evenodd" clip-rule="evenodd" fill="#FF0000" d="M472.6,338.9c1.066-1.1,2.383-1.65,3.95-1.65
				c1.534,0,2.85,0.55,3.95,1.65c1.1,1.067,1.65,2.383,1.65,3.95c0,1.533-0.55,2.85-1.65,3.95c-1.1,1.1-2.417,1.65-3.95,1.65
				c-1.566,0-2.883-0.55-3.95-1.65c-1.1-1.1-1.65-2.417-1.65-3.95C470.95,341.283,471.5,339.967,472.6,338.9z"/>
		</g>
		<g>
			<path fill-rule="evenodd" clip-rule="evenodd" fill="#009900" d="M319.95,419.95c0-1.567,0.533-2.883,1.6-3.95
				c1.1-1.1,2.434-1.65,4-1.65c1.534,0,2.85,0.55,3.95,1.65c1.1,1.067,1.65,2.383,1.65,3.95c0,1.533-0.55,2.85-1.65,3.95
				s-2.417,1.65-3.95,1.65c-1.566,0-2.9-0.55-4-1.65C320.483,422.8,319.95,421.483,319.95,419.95z"/>
		</g>
		<g>
			<path fill-rule="evenodd" clip-rule="evenodd" fill="#009900" d="M382.7,391.7c0,1.566-0.55,2.9-1.65,4
				c-1.066,1.066-2.383,1.6-3.95,1.6c-1.533,0-2.85-0.533-3.95-1.6c-1.1-1.1-1.65-2.434-1.65-4c0-1.534,0.55-2.85,1.65-3.95
				s2.417-1.65,3.95-1.65c1.566,0,2.883,0.55,3.95,1.65C382.15,388.85,382.7,390.167,382.7,391.7z"/>
		</g>
		<g>
			<path fill-rule="evenodd" clip-rule="evenodd" fill="#009900" d="M435.2,390.6c1.533,0,2.85,0.55,3.95,1.65s1.65,2.417,1.65,3.95
				c0,1.533-0.55,2.85-1.65,3.95s-2.417,1.65-3.95,1.65c-1.567,0-2.883-0.55-3.95-1.65c-1.1-1.1-1.65-2.417-1.65-3.95
				c0-1.534,0.55-2.85,1.65-3.95C432.317,391.15,433.633,390.6,435.2,390.6z"/>
		</g>
		<g>
			<path fill-rule="evenodd" clip-rule="evenodd" fill="#009900" d="M483.75,364.5c0,1.533-0.55,2.85-1.65,3.95
				c-1.1,1.1-2.417,1.65-3.95,1.65s-2.85-0.55-3.95-1.65c-1.1-1.1-1.65-2.417-1.65-3.95c0-1.567,0.55-2.9,1.65-4
				c1.1-1.067,2.417-1.6,3.95-1.6s2.85,0.533,3.95,1.6C483.2,361.6,483.75,362.933,483.75,364.5z"/>
		</g>
		<g>
			<path fill-rule="evenodd" clip-rule="evenodd" fill="#33CCFF" d="M480.15,424.4c0,1.567-0.533,2.883-1.6,3.95
				c-1.1,1.1-2.433,1.65-4,1.65c-1.533,0-2.85-0.55-3.95-1.65c-1.1-1.067-1.65-2.383-1.65-3.95c0-1.533,0.55-2.85,1.65-3.95
				c1.1-1.1,2.417-1.65,3.95-1.65c1.567,0,2.9,0.55,4,1.65C479.617,421.55,480.15,422.867,480.15,424.4z"/>
		</g>
		<g>
			<path fill-rule="evenodd" clip-rule="evenodd" fill="#33CCFF" d="M437.9,421.3c-1.1,1.1-2.417,1.65-3.95,1.65
				c-1.567,0-2.9-0.55-4-1.65c-1.067-1.066-1.6-2.383-1.6-3.95c0-1.533,0.533-2.85,1.6-3.95c1.1-1.1,2.433-1.65,4-1.65
				c1.533,0,2.85,0.55,3.95,1.65s1.65,2.417,1.65,3.95C439.55,418.917,439,420.233,437.9,421.3z"/>
		</g>
		<g>
			<path fill-rule="evenodd" clip-rule="evenodd" fill="#33CCFF" d="M378.55,429.9c-1.533,0-2.85-0.533-3.95-1.6
				c-1.1-1.1-1.65-2.433-1.65-4c0-1.533,0.55-2.85,1.65-3.95s2.417-1.65,3.95-1.65c1.567,0,2.9,0.55,4,1.65
				c1.067,1.1,1.6,2.417,1.6,3.95c0,1.567-0.533,2.9-1.6,4C381.45,429.367,380.117,429.9,378.55,429.9z"/>
		</g>
		<g>
			<path fill-rule="evenodd" clip-rule="evenodd" fill="#33CCFF" d="M320.8,436.4c0-1.566,0.55-2.883,1.65-3.95
				c1.066-1.1,2.383-1.65,3.95-1.65c1.533,0,2.85,0.55,3.95,1.65c1.1,1.066,1.65,2.383,1.65,3.95c0,1.533-0.55,2.85-1.65,3.95
				s-2.417,1.65-3.95,1.65c-1.566,0-2.883-0.55-3.95-1.65C321.35,439.25,320.8,437.933,320.8,436.4z"/>
		</g>
		<g>
			<path fill-rule="evenodd" clip-rule="evenodd" fill="#FFCC00" d="M319.05,467c0-1.533,0.534-2.85,1.6-3.95
				c1.1-1.1,2.434-1.65,4-1.65c1.533,0,2.85,0.55,3.95,1.65c1.1,1.1,1.65,2.417,1.65,3.95c0,1.567-0.55,2.9-1.65,4
				c-1.1,1.066-2.417,1.6-3.95,1.6c-1.566,0-2.9-0.533-4-1.6C319.583,469.9,319.05,468.567,319.05,467z"/>
		</g>
		<g>
			<path fill-rule="evenodd" clip-rule="evenodd" fill="#FFCC00" d="M384,444.3c1.1,1.1,1.65,2.434,1.65,4
				c0,1.534-0.55,2.85-1.65,3.95s-2.417,1.65-3.95,1.65c-1.566,0-2.9-0.55-4-1.65c-1.066-1.1-1.6-2.417-1.6-3.95
				c0-1.566,0.533-2.9,1.6-4c1.1-1.066,2.434-1.6,4-1.6C381.583,442.7,382.9,443.233,384,444.3z"/>
		</g>
		<g>
			<path fill-rule="evenodd" clip-rule="evenodd" fill="#FFCC00" d="M433.9,442.65c1.567,0,2.883,0.55,3.95,1.65
				c1.1,1.1,1.65,2.417,1.65,3.95c0,1.567-0.55,2.9-1.65,4c-1.067,1.067-2.383,1.6-3.95,1.6c-1.533,0-2.85-0.533-3.95-1.6
				c-1.1-1.1-1.65-2.433-1.65-4c0-1.533,0.55-2.85,1.65-3.95C431.05,443.2,432.367,442.65,433.9,442.65z"/>
		</g>
		<g>
			<path fill-rule="evenodd" clip-rule="evenodd" fill="#FFCC00" d="M470.6,438.9c1.1-1.066,2.417-1.6,3.95-1.6
				c1.567,0,2.9,0.534,4,1.6c1.067,1.1,1.6,2.434,1.6,4c0,1.533-0.533,2.85-1.6,3.95c-1.1,1.1-2.433,1.65-4,1.65
				c-1.533,0-2.85-0.55-3.95-1.65s-1.65-2.417-1.65-3.95C468.95,441.333,469.5,440,470.6,438.9z"/>
		</g>
	</g>
	<g>
		<g>
			
				<path fill-rule="evenodd" clip-rule="evenodd" fill="none" stroke="#009900" stroke-width="3" stroke-linecap="round" stroke-linejoin="round" stroke-miterlimit="3" d="
				M675.5,323.35l5.55-2.55v5.75v15.65v15.65l-15.8,5.95l-11.65,4.35l-12.5,4.7l-14.949,5.6l-20.95-0.7l-20.95-0.65l-9.35-0.3
				l-5-0.2l-6.301,1.1l-10.75,1.9l-10.449,1.85l-11.351,2l-12.2,2.15l-4.75,0.85v-4.1v-7.65V363l13.5-1.9l11.551-1.6l10.85-1.55
				l10.4-1.45l10.449-1.5l9.801-1.7l0.55-0.1l-0.15,0.15l12.25-2.25l14.101-2.45l10.1-1.75l10.1-1.75l15.101-6.85l9.45-4.3
				l10.649-4.85L675.5,323.35z M653.6,368.15l27.45-41.6 M665.25,363.8l15.8-21.6 M531.05,383.45L560.4,356.5 M518.85,385.6
				L550,357.95 M514.1,382.35l25.051-22.85 M514.1,374.7l13.5-13.6 M552.85,379.6l28.2-26.25l-0.399-0.05 M574.9,376.8l32.5-28.15
				 M584.25,377.1l33.25-30.2 M605.2,377.75l37.5-39.45 M594,377.05l33.6-31.9 M563.6,377.7l29.7-26.6 M542.4,381.45L570.85,355
				 M641.1,372.85l34.4-49.5 M617.2,377.45L652.15,334 M626.15,378.45l36.649-49.3"/>
			
				<path fill-rule="evenodd" clip-rule="evenodd" fill="none" stroke="#FFCC00" stroke-width="3" stroke-linecap="round" stroke-linejoin="round" stroke-miterlimit="3" d="
				M681.05,362.25v2.25v11.65v11.95v11.7v10.4v10.15V428l-7.149,2.55l-9.551,3.35l-11.449,4.05L640.8,442.2l-11.149,3.95
				l-8.801,3.05l-6.85-2.3l-6.8-2.25l-6-2l-6.25-2.1l-6.95-2.3l-7.05-2.35l-5.9-2l-7.8-2.6l-6.35-2.1l-3.551-1.2l-5.25,0.5
				l-10.449,1.15l-2,0.2l1.85-0.35l-10.1,1l-10.051,0.95l-7.25,0.65v-1.3v-7.5v-8.8v-7.05v-6.75v-9.85l13.15-2.3l11-1.95l11-1.95
				l10.25-1.8l9.15-1.6l1.25-0.25l15.6,0.55l14.35,0.45l15.7,0.5l10.601,0.35l3.3-1.2l10.1-3.8l9.75-3.65l9.4-3.55l8.6-3.25
				l8.7-3.25L681.05,362.25z M652.9,437.95l28.149-38.15 M664.35,433.9l16.7-23.7 M673.9,430.55l7.149-10.2 M591.65,382.6
				l-50.15,46.9l0.15,0.15 M514.1,414.5l35.15-29.85 M514.1,423.3l45.4-40.45 M514.1,430.8l54.551-49.55 M521.35,431.45
				l54.301-49.15 M580.95,435.9l48.5-54.25 M588,438.25l51.55-60.4 M531.4,430.5l54.1-48.95 M552.1,428.5l47.75-46.5 M567.25,431.3
				l48.3-48.8 M560.9,429.2l46.399-46.3 M575.05,433.9l45.45-50.4 M514.1,400.7l13.15-12.15 M514.1,407.45l24.15-20.85
				 M607.2,444.65l60.1-77.25 M614,446.9l62-82.75 M620.85,449.2l60.2-84.7 M629.65,446.15l51.399-70 M640.8,442.2l40.25-54.1
				 M594.95,440.55l54.35-66.35 M601.2,442.65l57.5-72"/>
			
				<path fill-rule="evenodd" clip-rule="evenodd" fill="none" stroke="#FF0000" stroke-width="3" stroke-linecap="round" stroke-linejoin="round" stroke-miterlimit="3" d="
				M665.05,437.65l8-2.8l8-2.85v1.55v11.95l-7.25,2.1l-7.25,2.1l-7,2l-8,2.3l-7.45,2.15l-10.05,2.9l-9.5,2.75l-6.05-1.2l-10.2-2
				l-7.35-1.45l-6.05-1.2l-6.65-1.3l-5.9-1.2l-6.85-1.35l-7.25-1.45L561,449.2l-5.25,0.85l-11.2,2.7l-9,1.95L524,457.2l-9.9,2.15
				v-1.25v-5.7v-6.9v-9.4l13.301-1.25l9.149-0.85l7.7-0.75l8.6-0.8l4.5-0.45l0.551,0.2l14.699,4.9l6.2,2.1l5.8,1.9l6.25,2.1
				l5.101,1.7l6.7,2.25l5.35,1.8l7.5,2.5l5.35,1.75l1.551-0.5l8.949-3.15L641.4,446l8.899-3.15l7-2.45L665.05,437.65z M651.55,454
				l5.75-13.6 M659.55,451.7l5.5-14.05 M673.8,447.6l7.25-14.05 M666.55,449.7l6.5-14.85 M594.9,455.95l7.75-8.8 M634.05,459.05
				L641.4,446 M618.5,460.6l3.9-7.9 M608.3,458.6l7.2-7.15 M624.55,461.8l6.8-12.25 M582.35,453.45l8.5-10.25 M575.5,452.1l9.1-11
				 M568.25,450.65l10.55-11.45 M600.95,457.15l7.05-8.2 M588.25,454.65l7.7-9.75 M552.85,432.45l-1,0.25L524,457.2 M572.6,437.1
				l-17,12.95h0.15 M514.1,458.1l30.15-24.85 M535.55,454.7l22.351-22.5 M514.1,452.4l22.45-18.4 M514.1,445.5l13.301-10.65
				 M544.55,452.75l18.55-17.05 M644.1,456.15l6.2-13.3"/>
			
				<path fill-rule="evenodd" clip-rule="evenodd" fill="none" stroke="#33CCFF" stroke-width="3" stroke-linecap="round" stroke-linejoin="round" stroke-miterlimit="3" d="
				M681.05,453.5v9.6v9.65h-7.8h-6.75h-8.3h-7.05h-8.601h-9.2h-8.3h-9.5h-9.5h-7.1h-8.25H582.1H573.2h-8.9h-8h-8.6h-8.25h-9.25h-9.5
				H514.1v-9.4l11.15-2.4l10.85-2.35l10.301-2.2l9.75-2.15l4.85-1.05l3.75,0.75l7,1.4l6.9,1.35l8,1.6l7.75,1.55l6.199,1.2l6.65,1.35
				l6.65,1.3l8.1,1.6l2.55,0.5l9.101-2.6l10-2.9l12.1-3.5l11.45-3.3l8-2.3l5.85-1.7V453.5z M666.5,472.75l14.55-19.25
				 M651.15,472.75l16.05-19.25 M658.2,472.75l17-21.55 M673.25,472.75l7.8-9.65 M582.1,472.75l12.301-12.9 M573.2,472.75
				l13.45-14.45 M598.95,472.75l8.3-10.35 M590.7,472.75l9.899-11.7 M633.35,472.75l10.301-12.45 M625.05,472.75l8.601-9.55
				 M615.55,472.75l6.45-7.45 M606.05,472.75l7.851-9.05 M514.1,472.75l11.15-11.8 M539.45,472.75l16.7-18.5 M530.2,472.75
				l16.2-16.35 M547.7,472.75l17.05-18.8 M520.7,472.75L536.1,458.6 M556.3,472.75l15.45-17.4 M564.3,472.75l14.351-16.05
				 M642.55,472.75l13.2-15.95"/>
		</g>
	</g>
	<g>
		<g>
			
				<path fill-rule="evenodd" clip-rule="evenodd" fill="none" stroke="#009900" stroke-width="3" stroke-linecap="round" stroke-linejoin="round" stroke-miterlimit="3" d="
				M118.35,413.65c-0.1-0.467-0.184-0.95-0.25-1.45c-0.2-1.233-0.367-2.483-0.5-3.75c-0.133-1.2-0.25-2.417-0.35-3.65
				c-0.167-2.2-0.25-4.433-0.25-6.7c0-0.233,0-0.467,0-0.7c0.033-2.167,0.133-4.3,0.3-6.4c0.133-2,0.35-3.967,0.65-5.9
				c0.3-2.133,0.683-4.233,1.15-6.3c0.566-2.6,1.283-5.133,2.15-7.6c0.733-2.2,1.567-4.35,2.5-6.45c0.867-1.967,1.817-3.9,2.85-5.8
				c0.967-1.8,2.017-3.567,3.15-5.3c1.167-1.8,2.433-3.566,3.8-5.3c1.467-1.934,3.034-3.817,4.7-5.65
				c0.967-1.067,1.967-2.117,3-3.15c0.667-0.667,1.35-1.316,2.05-1.95c0.333-0.333,0.667-0.65,1-0.95
				c1.867-1.733,3.784-3.35,5.75-4.85c2.5-1.933,5.083-3.683,7.75-5.25c3.467-2.1,7.05-3.9,10.75-5.4
				c3.967-1.633,8.067-2.917,12.3-3.85c5.566-1.233,11.367-1.9,17.4-2c0,2.034,0.017,4.067,0.05,6.1c0,2.5,0.017,5,0.05,7.5
				c0.033,2.333,0.083,4.667,0.15,7c0.033,2.333,0.083,4.667,0.15,7c0.033,2.1,0.083,4.2,0.15,6.3c0,0.5,0.017,1,0.05,1.5
				c0.066,2.1,0.15,4.2,0.25,6.3c0.066,1.933,0.133,3.867,0.2,5.8c0.1,2.267,0.2,4.534,0.3,6.8c0.2,4.167,0.433,8.333,0.7,12.5
				c0.233,4.033,0.5,8.066,0.8,12.1c0.1,1.6,0.217,3.2,0.35,4.8c0,0.367,0.017,0.733,0.05,1.1c-2.767,0.8-5.533,1.633-8.3,2.5
				c-3.367,1.066-6.75,2.183-10.15,3.35c-4.133,1.4-8.3,2.9-12.5,4.5c-3.9,1.466-7.833,3-11.8,4.6c-2.233,0.9-4.467,1.833-6.7,2.8
				c-0.867,0.333-1.716,0.7-2.55,1.1c-0.433,0.167-0.867,0.35-1.3,0.55c-2.633,1.133-5.267,2.3-7.9,3.5
				c-1.267,0.533-2.517,1.1-3.75,1.7c-4.333,2-8.683,4.066-13.05,6.2c-1.333-3.1-2.467-6.283-3.4-9.55
				c-0.267-0.9-0.5-1.783-0.7-2.65c-0.333-1.367-0.633-2.75-0.9-4.15c-0.067-0.267-0.117-0.533-0.15-0.8 M168.55,321.15l29.8,7.75
				 M180.85,317.3l17.45,4.1 M119.1,378.8l82,15.4 M121.25,371.2L199,388.65 M123.75,364.75l76.55,17.35 M126.6,358.95l71.9,16.65
				 M129.75,353.65l69.85,15.95 M157.8,326.55l40.7,9.35 M150.05,331.8l48.6,11.1 M143.3,337.6l55.55,13.1 M138.25,342.7L199.1,357
				 M133.55,348.35l65.75,14.45 M117.6,408.45l41.15,6.6 M118.5,414.55l29.7,4.95 M120.1,421.35l16.45,3.35 M117,397.4l66.05,8.55
				 M117.25,404.8l53.3,5.65 M117.3,391l75.9,11.6 M117.95,385.1l83.5,13.9"/>
			
				<path fill-rule="evenodd" clip-rule="evenodd" fill="none" stroke="#FF0000" stroke-width="3" stroke-linecap="round" stroke-linejoin="round" stroke-miterlimit="3" d="
				M206.35,328.9c0.066,3.1,0.15,6.2,0.25,9.3l30.55,12.9l5.25-8.15L206.35,328.9c-0.033-0.767-0.067-1.533-0.1-2.3
				c-0.067-1.467-0.117-2.917-0.15-4.35l40.3,14.55l3.2-4.95c-12.8-9.833-27.4-15.283-43.8-16.35c0.1,2.233,0.2,4.483,0.3,6.75
				 M237.15,351.1l-8,12.4l-3.65,5.6l-3.75,5.8l-3.7,5.75l-3.7,5.75l-8.55,13.2c0.233-5.067,0.434-10.133,0.6-15.2
				c0.067-2.533,0.133-5.066,0.2-7.6c0.033-2.667,0.066-5.333,0.1-8c0.033-2.6,0.066-5.2,0.1-7.8c0-2.333,0-4.667,0-7
				c-0.033-2.267-0.05-4.533-0.05-6.8c-0.067-3-0.117-6-0.15-9 M206.6,376.8l11.45,3.85 M206.4,384.4l7.95,2 M206.75,347.2
				l24.9,10.05 M206.7,368.8l15.05,6.1 M206.8,354l22.35,9.5 M206.8,361l18.7,8.1 M242.4,342.95l4-6.15"/>
			
				<path fill-rule="evenodd" clip-rule="evenodd" fill="none" stroke="#33CCFF" stroke-width="3" stroke-linecap="round" stroke-linejoin="round" stroke-miterlimit="3" d="
				M241.55,353.4l3.35-5.35l3.9-6.25l4.4-7.05c1.733,1.5,3.45,3.1,5.15,4.8c3.433,3.434,6.5,7.017,9.2,10.75c0.5,0.7,1,1.4,1.5,2.1
				c1.733,2.6,3.317,5.267,4.75,8c1.833,3.567,3.4,7.283,4.7,11.15c1.2,3.633,2.133,7.383,2.8,11.25c0.567,3.3,0.95,6.667,1.15,10.1
				c0.1,1.7,0.15,3.434,0.15,5.2c0,1.433-0.033,2.85-0.1,4.25c-0.033,0.633-0.067,1.283-0.1,1.95c-0.167,2.7-0.467,5.367-0.9,8
				c-0.467,2.9-1.083,5.733-1.85,8.5c-0.767,2.8-1.683,5.534-2.75,8.2c-0.9,2.233-1.883,4.417-2.95,6.55c-1.3,2.534-2.75,5-4.35,7.4
				c-0.934,1.433-2.217,3.233-3.85,5.4c-0.7,0.933-1.767,2.233-3.2,3.9c-1.167,1.3-2.383,2.583-3.65,3.85L210,403.9l2.1-3.4
				l2.1-3.35l3.3-5.25l2.5-4l2.8-4.5l2.2-3.5l3.2-5.1l6.85-10.95l3.3-5.3L241.55,353.4l36.95,18.15 M244.9,348.05l28.9,12.35
				 M248.8,341.8l18.75,8.5 M238.35,358.55l42.95,24.25 M235.05,363.85l47.4,29.05 M214.2,397.15l51.55,51.2 M212.1,400.5
				l50.45,51.75 M220,387.9l53.95,47.65 M217.5,391.9l52.1,51.05 M222.8,383.4l54.1,45.6 M228.2,374.8l53.3,37.5 M225,379.9
				l54.65,40.9 M232.4,370.05l50,34.25"/>
			
				<path fill-rule="evenodd" clip-rule="evenodd" fill="none" stroke="#FFCC00" stroke-width="3" stroke-linecap="round" stroke-linejoin="round" stroke-miterlimit="3" d="
				M253.05,461.55c-1.033,0.9-2.083,1.767-3.15,2.6c-2.633,2.033-5.333,3.883-8.1,5.55c-3.033,1.8-6.133,3.383-9.3,4.75
				c-3.567,1.533-7.267,2.8-11.1,3.8c-4.566,1.167-9.3,1.95-14.2,2.35c-2.434,0.2-4.9,0.301-7.4,0.301
				c-16.3,0-30.9-4.117-43.8-12.351c-3.9-2.466-7.633-5.316-11.2-8.55c-1.2-1.067-2.383-2.183-3.55-3.35c-1.7-1.7-3.3-3.433-4.8-5.2
				c-2.534-2.934-4.8-5.95-6.8-9.05c-1.4-2.133-2.667-4.316-3.8-6.55l10.1-4.05l10.1-4.05l8.5-3.4l18.45-7.4l9.4-3.8l10.05-4
				l11.85-4.8l6.25,7.35l5.95,6.95l6.25,7.35l14.2,16.65l8,9.4l5.75,6.75L253.05,461.55z M192.45,409.15l18.1,2.55 M173,416.95
				l49.75,9.05 M165.1,421l63.55,12.8 M182.4,413.15l34.1,5.5 M125.85,435.85l124.05,28.3 M129.65,442.4l112.15,27.3 M136.45,451.45
				l96.05,23 M144.8,460l76.6,18.25 M156,468.55l51.2,12.05 M154.55,424.35l82.4,18.3 M146.05,427.75l98.9,24.3 M135.95,431.8
				l114.75,27"/>
			
				<path fill-rule="evenodd" clip-rule="evenodd" fill="none" stroke="#009900" stroke-width="2.5" stroke-linecap="round" stroke-linejoin="round" stroke-miterlimit="3" d="
				M118.35,413.75c0-0.033,0-0.067,0-0.1"/>
		</g>
	</g>
	<g>
		<g>
			
				<path fill-rule="evenodd" clip-rule="evenodd" fill="none" stroke="#009900" stroke-width="3" stroke-linecap="round" stroke-linejoin="round" stroke-miterlimit="3" d="
				M153.2,714.35c0.533,0.4,1.033,0.817,1.5,1.25c1.9,1.767,3.25,3.717,4.05,5.851c0.533,1.467,0.8,3.017,0.8,4.649
				c0,4.601-2.117,8.517-6.35,11.75c-4.233,3.233-9.35,4.851-15.35,4.851c-1.333,0-2.617-0.066-3.85-0.2
				c-3.467-0.467-6.583-1.533-9.35-3.2c-0.733-0.434-1.45-0.916-2.15-1.45c-0.967-0.733-1.817-1.5-2.55-2.3
				c-2.167-2.333-3.4-4.967-3.7-7.899c-0.067-0.5-0.1-1.017-0.1-1.551c0-4.6,2.117-8.517,6.35-11.75s9.35-4.85,15.35-4.85
				c0.3,0,0.6,0,0.9,0c3.333,0.1,6.4,0.717,9.2,1.85C149.817,712.116,151.567,713.116,153.2,714.35z"/>
			
				<path fill-rule="evenodd" clip-rule="evenodd" fill="none" stroke="#009900" stroke-width="2.5" stroke-linecap="round" stroke-linejoin="round" stroke-miterlimit="3" d="
				M124.65,739.3l30.05-23.7 M116.25,727.65l22.5-18.15 M134,742.5l24.75-21.05 M119.95,735.55l28-24.2"/>
			
				<path fill-rule="evenodd" clip-rule="evenodd" fill="none" stroke="#FFCC00" stroke-width="3" stroke-linecap="round" stroke-linejoin="round" stroke-miterlimit="3" d="
				M285.6,643.05c1.233,1.9,2.183,3.9,2.85,6c0.733,2.367,1.1,4.867,1.1,7.5c0,0.233,0,0.467,0,0.7
				c-0.133,4.733-1.45,9.017-3.95,12.85c-1.2,1.801-2.684,3.517-4.45,5.15c-5.1,4.7-11.15,7.267-18.15,7.7
				c-0.733,0.033-1.45,0.05-2.15,0.05c-2,0-3.934-0.167-5.8-0.5c-2.5-0.434-4.85-1.167-7.05-2.2c-2.333-1.1-4.517-2.517-6.55-4.25
				c-0.3-0.267-0.6-0.533-0.9-0.8c-1.133-1.033-2.15-2.116-3.05-3.25c-0.933-1.167-1.733-2.366-2.4-3.6
				c-0.867-1.601-1.55-3.267-2.05-5c-0.6-2.167-0.9-4.45-0.9-6.851c0-0.733,0.033-1.45,0.1-2.149
				c0.467-6.233,3.117-11.634,7.95-16.2c0.1-0.134,0.216-0.25,0.35-0.351c5.2-4.767,11.383-7.333,18.55-7.699
				c0.566-0.034,1.15-0.051,1.75-0.051c2.3,0,4.5,0.217,6.6,0.65c1.633,0.333,3.2,0.8,4.7,1.4c1.533,0.6,3.017,1.35,4.45,2.25
				c1.267,0.767,2.483,1.649,3.65,2.649c0.3,0.267,0.6,0.533,0.9,0.8c0.133,0.101,0.267,0.217,0.4,0.351
				c1.267,1.233,2.383,2.517,3.35,3.85C285.133,642.384,285.367,642.717,285.6,643.05z"/>
			
				<path fill-rule="evenodd" clip-rule="evenodd" fill="none" stroke="#FFCC00" stroke-width="2.5" stroke-linecap="round" stroke-linejoin="round" stroke-miterlimit="3" d="
				M255.05,682.5l33.4-33.45 M248,680.3l36.9-38.25 M263,682.95l26.55-25.7 M241.45,676.05l38.8-39 M237.5,672l39.1-37.6
				 M235.1,668.4l37.05-36.25 M233.05,663.4l34.4-32.65 M232.25,654.4l26.85-24.25"/>
			
				<path fill-rule="evenodd" clip-rule="evenodd" fill="none" stroke="#FF0000" stroke-width="3" stroke-linecap="round" stroke-linejoin="round" stroke-miterlimit="3" d="
				M170.75,678.25c2.733-2.1,6.017-3.15,9.85-3.15c0.167,0,0.333,0,0.5,0c2.6,0.067,4.917,0.617,6.95,1.65
				c0.833,0.4,1.633,0.9,2.4,1.5c0.9,0.7,1.667,1.45,2.3,2.25c0.733,0.967,1.25,2.017,1.55,3.15c0.167,0.699,0.25,1.433,0.25,2.199
				c0,2.934-1.367,5.45-4.1,7.551c-2.5,1.933-5.5,2.983-9,3.149c-0.267,0-0.55,0-0.85,0c-1.6,0-3.1-0.184-4.5-0.55
				c-1.967-0.5-3.75-1.366-5.35-2.6c-0.267-0.2-0.5-0.4-0.7-0.601c-1.433-1.267-2.4-2.684-2.9-4.25c-0.3-0.866-0.45-1.767-0.45-2.7
				C166.7,682.884,168.05,680.35,170.75,678.25z"/>
			
				<path fill-rule="evenodd" clip-rule="evenodd" fill="none" stroke="#FF0000" stroke-width="2.5" stroke-linecap="round" stroke-linejoin="round" stroke-miterlimit="3" d="
				M167.15,688.55l13.95-13.45 M170.05,692.8l18-16.05 M176.1,696l16.65-15.5 M181.45,696.55l12.85-12.899"/>
			
				<path fill-rule="evenodd" clip-rule="evenodd" fill="none" stroke="#33CCFF" stroke-width="3" stroke-linecap="round" stroke-linejoin="round" stroke-miterlimit="3" d="
				M225.35,704.4c2.333,0,4.6,0.199,6.8,0.6c0.033,0,0.083,0.017,0.15,0.05c2.833,0.5,5.534,1.351,8.1,2.55
				c3.1,1.467,5.983,3.417,8.65,5.851c0.467,0.434,0.917,0.866,1.35,1.3c1.5,1.5,2.833,3.066,4,4.7c0.1,0.1,0.184,0.217,0.25,0.35
				c1.3,1.867,2.4,3.816,3.3,5.851c1.333,3.066,2.2,6.333,2.6,9.8c0.167,1.434,0.25,2.899,0.25,4.399c0,2.367-0.2,4.65-0.6,6.851
				c-1.2,6.5-4.167,12.267-8.9,17.3c-0.3,0.3-0.6,0.6-0.9,0.9c-6.9,6.933-15.25,10.399-25.05,10.399c-4.4,0-8.517-0.7-12.35-2.1
				c-2.867-1.066-5.567-2.5-8.1-4.3c-1.633-1.2-3.183-2.534-4.65-4c-0.3-0.301-0.583-0.601-0.85-0.9
				c-0.267-0.267-0.533-0.55-0.8-0.85c-0.867-1-1.667-2.017-2.4-3.051c-1.067-1.466-1.983-2.966-2.75-4.5
				c-1.333-2.666-2.284-5.483-2.85-8.449c-0.467-2.334-0.7-4.767-0.7-7.301c0-1.699,0.1-3.35,0.3-4.949
				c1-7.7,4.35-14.417,10.05-20.15c5.267-5.233,11.367-8.483,18.3-9.75C220.717,704.6,222.983,704.4,225.35,704.4z"/>
			
				<path fill-rule="evenodd" clip-rule="evenodd" fill="none" stroke="#33CCFF" stroke-width="2.5" stroke-linecap="round" stroke-linejoin="round" stroke-miterlimit="3" d="
				M190.6,747.15l49.8-39.551 M190.2,734.9l42.1-29.851 M225.35,775.3l34.85-28.6 M213,773.2l47.55-37.75 M204.9,768.9l53.05-43.25
				 M193.45,755.6l55.6-42.149 M198.6,763.15l55.8-43.7"/>
		</g>
	</g>
	<g>
		<g>
			
				<path fill-rule="evenodd" clip-rule="evenodd" fill="none" stroke="#000000" stroke-width="3.5" stroke-linecap="round" stroke-linejoin="round" stroke-miterlimit="3" stroke-opacity="0.702" d="
				M328.1,645.15c27.633,15.133,52.6,31.05,74.9,47.75l1.05-0.75l-0.6-78.301 M474.9,738.95l-70.85-45.25l0.75,96.85 M326.35,745.6
				L403,692.9c0.333,0.267,0.683,0.533,1.05,0.8 M485,636.45l-80.95,55.7v1.55"/>
		</g>
		<g>
			<g>
				
					<polygon fill-rule="evenodd" clip-rule="evenodd" fill="none" stroke="#33CCFF" stroke-width="3.5" stroke-linecap="round" stroke-linejoin="round" stroke-miterlimit="3" points="
					403.75,627.85 439.2,666.7 435.85,713.45 405.45,764.1 340.7,737.1 347.45,657.7 				"/>
				<g>
					<path fill-rule="evenodd" clip-rule="evenodd" fill="#33CCFF" d="M408.25,627.85c0,1.233-0.433,2.284-1.3,3.15
						c-0.867,0.9-1.917,1.35-3.15,1.35c-1.267,0-2.333-0.449-3.2-1.35c-0.867-0.866-1.3-1.917-1.3-3.15
						c0-1.267,0.434-2.316,1.3-3.149c0.867-0.9,1.933-1.351,3.2-1.351c1.233,0,2.284,0.45,3.15,1.351
						C407.817,625.533,408.25,626.583,408.25,627.85z M434.75,666.7c0-1.267,0.433-2.316,1.3-3.15c0.867-0.899,1.934-1.35,3.2-1.35
						c1.233,0,2.283,0.45,3.15,1.35c0.867,0.834,1.3,1.884,1.3,3.15c0,1.233-0.434,2.283-1.3,3.149
						c-0.867,0.9-1.917,1.351-3.15,1.351c-1.267,0-2.333-0.45-3.2-1.351C435.183,668.983,434.75,667.934,434.75,666.7z M347.5,662.2
						c-1.267,0-2.333-0.45-3.2-1.351c-0.867-0.866-1.3-1.916-1.3-3.149c0-1.267,0.433-2.316,1.3-3.15
						c0.867-0.899,1.934-1.35,3.2-1.35c1.233,0,2.283,0.45,3.15,1.35c0.867,0.834,1.3,1.884,1.3,3.15c0,1.233-0.434,2.283-1.3,3.149
						C349.783,661.75,348.733,662.2,347.5,662.2z M343.9,733.95c0.867,0.833,1.3,1.883,1.3,3.149c0,1.233-0.434,2.284-1.3,3.15
						c-0.867,0.9-1.917,1.35-3.15,1.35c-1.267,0-2.333-0.449-3.2-1.35c-0.867-0.866-1.3-1.917-1.3-3.15
						c0-1.267,0.433-2.316,1.3-3.149c0.867-0.9,1.934-1.351,3.2-1.351C341.983,732.6,343.033,733.05,343.9,733.95z M401.7,759.85
						c0.867-0.899,1.933-1.35,3.2-1.35c1.233,0,2.283,0.45,3.15,1.35c0.867,0.834,1.3,1.884,1.3,3.15c0,1.233-0.434,2.283-1.3,3.15
						c-0.867,0.899-1.917,1.35-3.15,1.35c-1.267,0-2.333-0.45-3.2-1.35c-0.867-0.867-1.3-1.917-1.3-3.15
						C400.4,761.733,400.833,760.684,401.7,759.85z M440.35,713.45c0,1.233-0.434,2.283-1.3,3.149
						c-0.867,0.9-1.917,1.351-3.15,1.351c-1.267,0-2.333-0.45-3.2-1.351c-0.867-0.866-1.3-1.916-1.3-3.149
						c0-1.267,0.434-2.316,1.3-3.15c0.867-0.899,1.933-1.35,3.2-1.35c1.233,0,2.283,0.45,3.15,1.35
						C439.917,711.134,440.35,712.184,440.35,713.45z"/>
				</g>
			</g>
			<g>
				
					<polygon fill-rule="evenodd" clip-rule="evenodd" fill="none" stroke="#FFCC00" stroke-width="3.5" stroke-linecap="round" stroke-linejoin="round" stroke-miterlimit="3" points="
					403.75,639.15 471.6,645.95 431.9,712.9 403.75,723 346.35,732.6 371.1,668.4 				"/>
				<g>
					<path fill-rule="evenodd" clip-rule="evenodd" fill="#FFCC00" d="M407.8,639.15c0,1.1-0.4,2.05-1.2,2.85
						c-0.767,0.8-1.7,1.2-2.8,1.2c-1.167,0-2.133-0.4-2.9-1.2s-1.15-1.75-1.15-2.85c0-1.134,0.383-2.084,1.15-2.851
						c0.767-0.8,1.733-1.2,2.9-1.2c1.1,0,2.034,0.4,2.8,1.2C407.4,637.066,407.8,638.017,407.8,639.15z M474.85,647.25
						c0,1.1-0.4,2.05-1.2,2.85c-0.767,0.801-1.717,1.2-2.85,1.2s-2.083-0.399-2.85-1.2c-0.8-0.8-1.2-1.75-1.2-2.85
						c0-1.134,0.4-2.083,1.2-2.85c0.767-0.801,1.716-1.2,2.85-1.2s2.083,0.399,2.85,1.2
						C474.45,645.167,474.85,646.116,474.85,647.25z M368.25,671.2c-0.767-0.767-1.15-1.717-1.15-2.851
						c0-1.133,0.383-2.066,1.15-2.8c0.8-0.833,1.767-1.25,2.9-1.25c1.1,0,2.05,0.417,2.85,1.25c0.767,0.733,1.15,1.667,1.15,2.8
						c0,1.134-0.383,2.084-1.15,2.851c-0.8,0.8-1.75,1.2-2.85,1.2C370.017,672.4,369.05,672,368.25,671.2z M400.9,725.85
						c-0.767-0.8-1.15-1.75-1.15-2.85c0-1.134,0.383-2.083,1.15-2.85c0.767-0.801,1.733-1.2,2.9-1.2c1.1,0,2.034,0.399,2.8,1.2
						c0.8,0.767,1.2,1.716,1.2,2.85c0,1.1-0.4,2.05-1.2,2.85c-0.767,0.801-1.7,1.2-2.8,1.2
						C402.633,727.05,401.667,726.65,400.9,725.85z M343.45,731.45c0-1.134,0.4-2.066,1.2-2.8c0.767-0.834,1.717-1.25,2.85-1.25
						s2.083,0.416,2.85,1.25c0.8,0.733,1.2,1.666,1.2,2.8c0,1.133-0.4,2.083-1.2,2.85c-0.767,0.8-1.717,1.2-2.85,1.2
						s-2.083-0.4-2.85-1.2C343.85,733.533,343.45,732.583,343.45,731.45z M437.2,710.7c0,1.1-0.4,2.05-1.2,2.85
						c-0.767,0.8-1.7,1.2-2.8,1.2c-1.167,0-2.133-0.4-2.9-1.2c-0.767-0.8-1.15-1.75-1.15-2.85c0-1.134,0.383-2.084,1.15-2.851
						c0.767-0.8,1.733-1.199,2.9-1.199c1.1,0,2.033,0.399,2.8,1.199C436.8,708.616,437.2,709.566,437.2,710.7z"/>
				</g>
			</g>
			<g>
				
					<polygon fill-rule="evenodd" clip-rule="evenodd" fill="none" stroke="#009900" stroke-width="3.5" stroke-linecap="round" stroke-linejoin="round" stroke-miterlimit="3" points="
					458.6,654.35 454.4,726.95 403.2,748.35 376.2,710.05 376.75,676.25 405.45,652.65 				"/>
				<g>
					<path fill-rule="evenodd" clip-rule="evenodd" fill="#009900" d="M408,653.55c0,1-0.35,1.867-1.05,2.601
						c-0.7,0.699-1.55,1.05-2.55,1.05c-1.033,0-1.9-0.351-2.6-1.05c-0.667-0.733-1-1.601-1-2.601s0.333-1.85,1-2.55
						c0.7-0.733,1.567-1.1,2.6-1.1c1,0,1.85,0.366,2.55,1.1C407.65,651.7,408,652.55,408,653.55z M453.25,654.4
						c0-1,0.333-1.851,1-2.551c0.7-0.733,1.567-1.1,2.6-1.1c1,0,1.85,0.366,2.55,1.1c0.7,0.7,1.05,1.551,1.05,2.551
						s-0.35,1.866-1.05,2.6c-0.7,0.7-1.55,1.05-2.55,1.05c-1.033,0-1.9-0.35-2.6-1.05C453.583,656.267,453.25,655.4,453.25,654.4z
						 M379.45,678.25c-0.7,0.7-1.55,1.05-2.55,1.05c-1.033,0-1.9-0.35-2.6-1.05c-0.667-0.733-1-1.6-1-2.6s0.333-1.851,1-2.551
						c0.7-0.733,1.567-1.1,2.6-1.1c1,0,1.85,0.366,2.55,1.1c0.7,0.7,1.05,1.551,1.05,2.551S380.15,677.517,379.45,678.25z
						 M378.75,712.65c-0.7,0.699-1.55,1.05-2.55,1.05c-1.034,0-1.9-0.351-2.6-1.05c-0.667-0.733-1-1.601-1-2.601s0.333-1.85,1-2.55
						c0.7-0.733,1.566-1.1,2.6-1.1c1,0,1.85,0.366,2.55,1.1c0.7,0.7,1.05,1.55,1.05,2.55S379.45,711.917,378.75,712.65z
						 M400.6,745.8c0.7-0.733,1.566-1.1,2.6-1.1c1,0,1.85,0.366,2.55,1.1c0.7,0.7,1.05,1.55,1.05,2.55s-0.35,1.867-1.05,2.601
						c-0.7,0.7-1.55,1.05-2.55,1.05c-1.034,0-1.9-0.35-2.6-1.05c-0.667-0.733-1-1.601-1-2.601S399.933,746.5,400.6,745.8z
						 M451.8,723.3c0.7-0.733,1.567-1.1,2.6-1.1c1,0,1.85,0.366,2.55,1.1c0.7,0.7,1.05,1.55,1.05,2.55s-0.35,1.867-1.05,2.601
						c-0.7,0.7-1.55,1.05-2.55,1.05c-1.033,0-1.9-0.35-2.6-1.05c-0.667-0.733-1-1.601-1-2.601S451.133,724,451.8,723.3z"/>
				</g>
			</g>
			<g>
				
					<polygon fill-rule="evenodd" clip-rule="evenodd" fill="none" stroke="#FF0000" stroke-width="3.5" stroke-linecap="round" stroke-linejoin="round" stroke-miterlimit="3" points="
					448.3,660 404.3,735.4 388.55,703.3 392.5,681.9 405.45,666.15 				"/>
				<g>
					<path fill-rule="evenodd" clip-rule="evenodd" fill="#FF0000" d="M408.55,666.7c0,1-0.35,1.866-1.05,2.6
						c-0.7,0.7-1.55,1.05-2.55,1.05c-1.034,0-1.9-0.35-2.6-1.05c-0.667-0.733-1-1.6-1-2.6s0.333-1.851,1-2.55
						c0.7-0.733,1.566-1.101,2.6-1.101c1,0,1.85,0.367,2.55,1.101C408.2,664.85,408.55,665.7,408.55,666.7z M450.85,662.6
						c-0.7,0.7-1.55,1.051-2.55,1.051c-1.033,0-1.9-0.351-2.6-1.051c-0.667-0.733-1-1.6-1-2.6s0.333-1.85,1-2.55
						c0.7-0.733,1.566-1.101,2.6-1.101c1,0,1.85,0.367,2.55,1.101c0.7,0.7,1.05,1.55,1.05,2.55S451.55,661.866,450.85,662.6z
						 M388.75,680.85c0.7-0.733,1.567-1.1,2.6-1.1c1,0,1.85,0.366,2.55,1.1c0.7,0.7,1.05,1.551,1.05,2.551s-0.35,1.866-1.05,2.6
						c-0.7,0.7-1.55,1.05-2.55,1.05c-1.033,0-1.9-0.35-2.6-1.05c-0.667-0.733-1-1.6-1-2.6S388.083,681.55,388.75,680.85z
						 M391.1,705.9c-0.7,0.699-1.55,1.05-2.55,1.05c-1.033,0-1.9-0.351-2.6-1.05c-0.667-0.733-1-1.601-1-2.601s0.333-1.85,1-2.55
						c0.7-0.733,1.566-1.1,2.6-1.1c1,0,1.85,0.366,2.55,1.1c0.7,0.7,1.05,1.55,1.05,2.55S391.8,705.167,391.1,705.9z M401.7,738
						c-0.667-0.733-1-1.6-1-2.6s0.333-1.851,1-2.551c0.7-0.733,1.566-1.1,2.6-1.1c1,0,1.85,0.366,2.55,1.1
						c0.7,0.7,1.05,1.551,1.05,2.551s-0.35,1.866-1.05,2.6c-0.7,0.7-1.55,1.05-2.55,1.05C403.267,739.05,402.4,738.7,401.7,738z
						 M425.15,703.95c0,1-0.35,1.866-1.05,2.6c-0.7,0.7-1.55,1.05-2.55,1.05c-1.033,0-1.9-0.35-2.6-1.05c-0.667-0.733-1-1.6-1-2.6
						s0.333-1.851,1-2.55c0.7-0.733,1.566-1.101,2.6-1.101c1,0,1.85,0.367,2.55,1.101C424.8,702.1,425.15,702.95,425.15,703.95z"/>
				</g>
			</g>
		</g>
	</g>
	<g>
		<g>
			<g>
				
					<path fill-rule="evenodd" clip-rule="evenodd" fill="none" stroke="#FF0000" stroke-width="2.5" stroke-linecap="round" stroke-linejoin="round" stroke-miterlimit="3" d="
					M526.5,682.9l4.45-4.801 M526.5,729.3l30-30.35 M526.5,736.85l30-29.449 M544.9,767.95l11.6-9.8 M528.25,767.95L556.5,745.6
					 M536.55,767.95l19.95-15.601 M526.5,762.9l30-23.101 M526.5,757.9l30-25.101 M526.5,750.6l30-25.399 M526.5,743.85l30-26.8
					 M526.5,721.1l30-31.8 M526.5,712.65l30-33.25 M526.5,702.45l22.15-24.351 M526.5,693.4l14.05-15.301"/>
				
					<polygon fill-rule="evenodd" clip-rule="evenodd" fill="none" stroke="#FF0000" stroke-width="3" stroke-linecap="round" stroke-linejoin="round" stroke-miterlimit="3" points="
					548.65,678.1 556.5,678.1 556.5,679.4 556.5,689.3 556.5,698.95 556.5,707.4 556.5,717.05 556.5,725.2 556.5,732.8 556.5,739.8 
					556.5,745.6 556.5,752.35 556.5,758.15 556.5,767.95 544.9,767.95 536.55,767.95 528.25,767.95 526.5,767.95 526.5,762.9 
					526.5,757.9 526.5,750.6 526.5,743.85 526.5,736.85 526.5,729.3 526.5,721.1 526.5,712.65 526.5,702.45 526.5,693.4 
					526.5,682.9 526.5,678.1 530.95,678.1 540.55,678.1 				"/>
			</g>
		</g>
		<g>
			<g>
				
					<polygon fill-rule="evenodd" clip-rule="evenodd" fill="none" stroke="#009900" stroke-width="3" stroke-linecap="round" stroke-linejoin="round" stroke-miterlimit="3" points="
					596.65,636.25 598.4,636.25 598.4,642.35 598.4,649.35 598.4,655.15 598.4,661.9 598.4,667.7 598.4,677.5 586.8,677.5 
					578.45,677.5 570.15,677.5 568.4,677.5 568.4,672.45 568.4,667.45 568.4,660.15 568.4,653.4 568.4,646.4 568.4,636.25 
					578.75,636.25 587.6,636.25 				"/>
				
					<path fill-rule="evenodd" clip-rule="evenodd" fill="none" stroke="#009900" stroke-width="2.5" stroke-linecap="round" stroke-linejoin="round" stroke-miterlimit="3" d="
					M570.15,677.5l28.25-22.35 M568.4,672.45l30-23.101 M578.45,677.5l19.95-15.6 M586.8,677.5l11.601-9.8 M568.4,667.45l30-25.101
					 M568.4,660.15l28.25-23.9 M568.4,646.4l10.35-10.15 M568.4,653.4l19.199-17.15"/>
			</g>
		</g>
		<g>
			<g>
				
					<polygon fill-rule="evenodd" clip-rule="evenodd" fill="none" stroke="#FFCC00" stroke-width="3" stroke-linecap="round" stroke-linejoin="round" stroke-miterlimit="3" points="
					629.5,636.25 638.55,636.25 640.3,636.25 640.3,642.35 640.3,649.35 640.3,655.15 640.3,661.9 640.3,667.7 640.3,668.8 
					639,668.8 631.5,668.8 623.05,668.8 615.05,668.8 610.3,668.8 610.3,667.45 610.3,660.15 610.3,653.4 610.3,646.4 610.3,636.25 
					620.65,636.25 				"/>
				
					<path fill-rule="evenodd" clip-rule="evenodd" fill="none" stroke="#FFCC00" stroke-width="2.5" stroke-linecap="round" stroke-linejoin="round" stroke-miterlimit="3" d="
					M623.05,668.8l17.25-13.649 M615.05,668.8l25.25-19.45 M639,668.8l1.3-1.1 M631.5,668.8l8.8-6.899 M610.3,667.45l30-25.101
					 M610.3,660.15l28.25-23.9 M610.3,653.4l19.2-17.15 M610.3,646.4l10.351-10.15"/>
			</g>
		</g>
		<g>
			<g>
				
					<polygon fill-rule="evenodd" clip-rule="evenodd" fill="none" stroke="#33CCFF" stroke-width="3" stroke-linecap="round" stroke-linejoin="round" stroke-miterlimit="3" points="
					677.7,669 677.7,671.7 677.7,681.45 677.7,691.1 677.7,700.55 677.7,708.8 677.7,718.25 677.7,726.2 677.7,733.6 677.7,740.45 
					677.7,746.15 677.7,752.75 677.7,758.4 677.7,767.95 666.1,767.95 657.75,767.95 649.45,767.95 647.7,767.95 647.7,763.05 
					647.7,758.15 647.7,751 647.7,744.4 647.7,737.6 647.7,730.2 647.7,722.2 647.7,713.9 647.7,703.95 647.7,695.1 647.7,684.85 
					647.7,669 662.7,669 672.2,669 				"/>
				
					<path fill-rule="evenodd" clip-rule="evenodd" fill="none" stroke="#33CCFF" stroke-width="2.5" stroke-linecap="round" stroke-linejoin="round" stroke-miterlimit="3" d="
					M649.45,767.95l28.25-21.8 M657.75,767.95l19.95-15.2 M666.1,767.95l11.601-9.55 M647.7,744.4l30-26.15 M647.7,751l30-24.8
					 M647.7,758.15l30-24.551 M647.7,763.05l30-22.6 M647.7,684.85l15-15.85 M647.7,695.1l24.5-26.1 M647.7,703.95l30-32.25
					 M647.7,713.9l30-32.45 M647.7,722.2l30-31.101 M647.7,730.2l30-29.65 M647.7,737.6l30-28.8"/>
			</g>
		</g>
		<g>
			<path fill-rule="evenodd" clip-rule="evenodd" d="M670.5,667.6c0.4,0,0.75,0.15,1.05,0.45s0.45,0.65,0.45,1.05
				c0,0.4-0.15,0.75-0.45,1.051c-0.3,0.3-0.649,0.449-1.05,0.449s-0.75-0.149-1.05-0.449c-0.3-0.301-0.45-0.65-0.45-1.051
				c0-0.399,0.15-0.75,0.45-1.05S670.1,667.6,670.5,667.6z M677.55,668.05c0.3,0.3,0.45,0.65,0.45,1.05c0,0.4-0.15,0.75-0.45,1.051
				c-0.3,0.3-0.649,0.449-1.05,0.449s-0.75-0.149-1.05-0.449c-0.3-0.301-0.45-0.65-0.45-1.051c0-0.399,0.15-0.75,0.45-1.05
				s0.649-0.45,1.05-0.45S677.25,667.75,677.55,668.05z M665.55,668.05c0.3,0.3,0.45,0.65,0.45,1.05c0,0.4-0.15,0.75-0.45,1.051
				c-0.3,0.3-0.649,0.449-1.05,0.449s-0.75-0.149-1.05-0.449c-0.3-0.301-0.45-0.65-0.45-1.051c0-0.399,0.15-0.75,0.45-1.05
				s0.649-0.45,1.05-0.45S665.25,667.75,665.55,668.05z M652.5,667.6c0.4,0,0.75,0.15,1.05,0.45s0.45,0.65,0.45,1.05
				c0,0.4-0.15,0.75-0.45,1.051c-0.3,0.3-0.649,0.449-1.05,0.449s-0.75-0.149-1.05-0.449c-0.3-0.301-0.45-0.65-0.45-1.051
				c0-0.399,0.15-0.75,0.45-1.05S652.1,667.6,652.5,667.6z M658.5,667.6c0.4,0,0.75,0.15,1.05,0.45s0.45,0.65,0.45,1.05
				c0,0.4-0.15,0.75-0.45,1.051c-0.3,0.3-0.649,0.449-1.05,0.449s-0.75-0.149-1.05-0.449c-0.3-0.301-0.45-0.65-0.45-1.051
				c0-0.399,0.15-0.75,0.45-1.05S658.1,667.6,658.5,667.6z M617.25,634.85c0.3,0.301,0.45,0.65,0.45,1.051
				c0,0.399-0.15,0.75-0.45,1.05s-0.65,0.45-1.05,0.45c-0.4,0-0.75-0.15-1.05-0.45c-0.301-0.3-0.45-0.65-0.45-1.05
				c0-0.4,0.149-0.75,0.45-1.051c0.3-0.3,0.649-0.449,1.05-0.449C616.6,634.4,616.95,634.55,617.25,634.85z M610.2,634.4
				c0.399,0,0.75,0.149,1.05,0.449c0.3,0.301,0.45,0.65,0.45,1.051c0,0.399-0.15,0.75-0.45,1.05s-0.65,0.45-1.05,0.45
				c-0.4,0-0.75-0.15-1.05-0.45c-0.301-0.3-0.45-0.65-0.45-1.05c0-0.4,0.149-0.75,0.45-1.051C609.45,634.55,609.8,634.4,610.2,634.4
				z M623.7,635.9c0,0.399-0.15,0.75-0.45,1.05s-0.65,0.45-1.05,0.45c-0.4,0-0.75-0.15-1.05-0.45c-0.301-0.3-0.45-0.65-0.45-1.05
				c0-0.4,0.149-0.75,0.45-1.051c0.3-0.3,0.649-0.449,1.05-0.449c0.399,0,0.75,0.149,1.05,0.449
				C623.55,635.15,623.7,635.5,623.7,635.9z M627.15,634.85c0.3-0.3,0.649-0.449,1.05-0.449c0.399,0,0.75,0.149,1.05,0.449
				c0.3,0.301,0.45,0.65,0.45,1.051c0,0.399-0.15,0.75-0.45,1.05s-0.65,0.45-1.05,0.45c-0.4,0-0.75-0.15-1.05-0.45
				c-0.301-0.3-0.45-0.65-0.45-1.05C626.7,635.5,626.85,635.15,627.15,634.85z M635.7,635.9c0,0.399-0.15,0.75-0.45,1.05
				s-0.65,0.45-1.05,0.45c-0.4,0-0.75-0.15-1.05-0.45c-0.301-0.3-0.45-0.65-0.45-1.05c0-0.4,0.149-0.75,0.45-1.051
				c0.3-0.3,0.649-0.449,1.05-0.449c0.399,0,0.75,0.149,1.05,0.449C635.55,635.15,635.7,635.5,635.7,635.9z M641.25,634.85
				c0.3,0.301,0.45,0.65,0.45,1.051c0,0.399-0.15,0.75-0.45,1.05s-0.65,0.45-1.05,0.45c-0.4,0-0.75-0.15-1.05-0.45
				c-0.301-0.3-0.45-0.65-0.45-1.05c0-0.4,0.149-0.75,0.45-1.051c0.3-0.3,0.649-0.449,1.05-0.449
				C640.6,634.4,640.95,634.55,641.25,634.85z M575.25,634.85c0.3,0.301,0.45,0.65,0.45,1.051c0,0.399-0.15,0.75-0.45,1.05
				s-0.65,0.45-1.05,0.45c-0.4,0-0.75-0.15-1.05-0.45c-0.301-0.3-0.45-0.65-0.45-1.05c0-0.4,0.149-0.75,0.45-1.051
				c0.3-0.3,0.649-0.449,1.05-0.449C574.6,634.4,574.95,634.55,575.25,634.85z M569.25,634.85c0.3,0.301,0.45,0.65,0.45,1.051
				c0,0.399-0.15,0.75-0.45,1.05s-0.65,0.45-1.05,0.45c-0.4,0-0.75-0.15-1.05-0.45c-0.301-0.3-0.45-0.65-0.45-1.05
				c0-0.4,0.149-0.75,0.45-1.051c0.3-0.3,0.649-0.449,1.05-0.449C568.6,634.4,568.95,634.55,569.25,634.85z M585.15,634.85
				c0.3-0.3,0.649-0.449,1.05-0.449c0.399,0,0.75,0.149,1.05,0.449c0.3,0.301,0.45,0.65,0.45,1.051c0,0.399-0.15,0.75-0.45,1.05
				s-0.65,0.45-1.05,0.45c-0.4,0-0.75-0.15-1.05-0.45c-0.301-0.3-0.45-0.65-0.45-1.05C584.7,635.5,584.85,635.15,585.15,634.85z
				 M579.15,634.85c0.3-0.3,0.649-0.449,1.05-0.449c0.399,0,0.75,0.149,1.05,0.449c0.3,0.301,0.45,0.65,0.45,1.051
				c0,0.399-0.15,0.75-0.45,1.05s-0.65,0.45-1.05,0.45c-0.4,0-0.75-0.15-1.05-0.45c-0.301-0.3-0.45-0.65-0.45-1.05
				C578.7,635.5,578.85,635.15,579.15,634.85z M593.7,635.9c0,0.399-0.15,0.75-0.45,1.05s-0.65,0.45-1.05,0.45
				c-0.4,0-0.75-0.15-1.05-0.45c-0.301-0.3-0.45-0.65-0.45-1.05c0-0.4,0.149-0.75,0.45-1.051c0.3-0.3,0.649-0.449,1.05-0.449
				c0.399,0,0.75,0.149,1.05,0.449C593.55,635.15,593.7,635.5,593.7,635.9z M597.15,634.85c0.3-0.3,0.649-0.449,1.05-0.449
				c0.399,0,0.75,0.149,1.05,0.449c0.3,0.301,0.45,0.65,0.45,1.051c0,0.399-0.15,0.75-0.45,1.05s-0.65,0.45-1.05,0.45
				c-0.4,0-0.75-0.15-1.05-0.45c-0.301-0.3-0.45-0.65-0.45-1.05C596.7,635.5,596.85,635.15,597.15,634.85z M605.25,634.85
				c0.3,0.301,0.45,0.65,0.45,1.051c0,0.399-0.15,0.75-0.45,1.05s-0.65,0.45-1.05,0.45c-0.4,0-0.75-0.15-1.05-0.45
				c-0.301-0.3-0.45-0.65-0.45-1.05c0-0.4,0.149-0.75,0.45-1.051c0.3-0.3,0.649-0.449,1.05-0.449
				C604.6,634.4,604.95,634.55,605.25,634.85z M579.25,677.05c0.3-0.3,0.65-0.45,1.05-0.45c0.4,0,0.75,0.15,1.05,0.45
				c0.301,0.3,0.45,0.65,0.45,1.05c0,0.4-0.149,0.75-0.45,1.051c-0.3,0.3-0.649,0.449-1.05,0.449c-0.399,0-0.75-0.149-1.05-0.449
				c-0.3-0.301-0.45-0.65-0.45-1.051C578.8,677.7,578.95,677.35,579.25,677.05z M586.3,676.6c0.4,0,0.75,0.15,1.05,0.45
				c0.301,0.3,0.45,0.65,0.45,1.05c0,0.4-0.149,0.75-0.45,1.051c-0.3,0.3-0.649,0.449-1.05,0.449c-0.399,0-0.75-0.149-1.05-0.449
				c-0.3-0.301-0.45-0.65-0.45-1.051c0-0.399,0.15-0.75,0.45-1.05S585.9,676.6,586.3,676.6z M569.8,678.1
				c0,0.4-0.149,0.75-0.45,1.051c-0.3,0.3-0.649,0.449-1.05,0.449c-0.399,0-0.75-0.149-1.05-0.449c-0.3-0.301-0.45-0.65-0.45-1.051
				c0-0.399,0.15-0.75,0.45-1.05s0.65-0.45,1.05-0.45c0.4,0,0.75,0.15,1.05,0.45C569.65,677.35,569.8,677.7,569.8,678.1z
				 M573.25,677.05c0.3-0.3,0.65-0.45,1.05-0.45c0.4,0,0.75,0.15,1.05,0.45c0.301,0.3,0.45,0.65,0.45,1.05
				c0,0.4-0.149,0.75-0.45,1.051c-0.3,0.3-0.649,0.449-1.05,0.449c-0.399,0-0.75-0.149-1.05-0.449c-0.3-0.301-0.45-0.65-0.45-1.051
				C572.8,677.7,572.95,677.35,573.25,677.05z M599.8,678.1c0,0.4-0.149,0.75-0.45,1.051c-0.3,0.3-0.649,0.449-1.05,0.449
				c-0.399,0-0.75-0.149-1.05-0.449c-0.3-0.301-0.45-0.65-0.45-1.051c0-0.399,0.15-0.75,0.45-1.05s0.65-0.45,1.05-0.45
				c0.4,0,0.75,0.15,1.05,0.45C599.65,677.35,599.8,677.7,599.8,678.1z M590.8,678.1c0-0.399,0.15-0.75,0.45-1.05
				s0.65-0.45,1.05-0.45c0.4,0,0.75,0.15,1.05,0.45c0.301,0.3,0.45,0.65,0.45,1.05c0,0.4-0.149,0.75-0.45,1.051
				c-0.3,0.3-0.649,0.449-1.05,0.449c-0.399,0-0.75-0.149-1.05-0.449C590.95,678.85,590.8,678.5,590.8,678.1z M629.55,668.05
				c0.3,0.3,0.45,0.65,0.45,1.05c0,0.4-0.15,0.75-0.45,1.051c-0.3,0.3-0.649,0.449-1.05,0.449s-0.75-0.149-1.05-0.449
				c-0.3-0.301-0.45-0.65-0.45-1.051c0-0.399,0.15-0.75,0.45-1.05s0.649-0.45,1.05-0.45S629.25,667.75,629.55,668.05z M634.5,667.6
				c0.4,0,0.75,0.15,1.05,0.45s0.45,0.65,0.45,1.05c0,0.4-0.15,0.75-0.45,1.051c-0.3,0.3-0.649,0.449-1.05,0.449
				s-0.75-0.149-1.05-0.449c-0.3-0.301-0.45-0.65-0.45-1.051c0-0.399,0.15-0.75,0.45-1.05S634.1,667.6,634.5,667.6z M647.55,668.05
				c0.3,0.3,0.45,0.65,0.45,1.05c0,0.4-0.15,0.75-0.45,1.051c-0.3,0.3-0.649,0.449-1.05,0.449s-0.75-0.149-1.05-0.449
				c-0.3-0.301-0.45-0.65-0.45-1.051c0-0.399,0.15-0.75,0.45-1.05s0.649-0.45,1.05-0.45S647.25,667.75,647.55,668.05z
				 M641.55,668.05c0.3,0.3,0.45,0.65,0.45,1.05c0,0.4-0.15,0.75-0.45,1.051c-0.3,0.3-0.649,0.449-1.05,0.449
				s-0.75-0.149-1.05-0.449c-0.3-0.301-0.45-0.65-0.45-1.051c0-0.399,0.15-0.75,0.45-1.05s0.649-0.45,1.05-0.45
				S641.25,667.75,641.55,668.05z M623.55,668.05c0.3,0.3,0.45,0.65,0.45,1.05c0,0.4-0.15,0.75-0.45,1.051
				c-0.3,0.3-0.649,0.449-1.05,0.449s-0.75-0.149-1.05-0.449c-0.3-0.301-0.45-0.65-0.45-1.051c0-0.399,0.15-0.75,0.45-1.05
				s0.649-0.45,1.05-0.45S623.25,667.75,623.55,668.05z M617.55,668.05c0.3,0.3,0.45,0.65,0.45,1.05c0,0.4-0.15,0.75-0.45,1.051
				c-0.3,0.3-0.649,0.449-1.05,0.449s-0.75-0.149-1.05-0.449c-0.3-0.301-0.45-0.65-0.45-1.051c0-0.399,0.15-0.75,0.45-1.05
				s0.649-0.45,1.05-0.45S617.25,667.75,617.55,668.05z M610.5,667.6c0.4,0,0.75,0.15,1.05,0.45s0.45,0.65,0.45,1.05
				c0,0.4-0.15,0.75-0.45,1.051c-0.3,0.3-0.649,0.449-1.05,0.449s-0.75-0.149-1.05-0.449c-0.3-0.301-0.45-0.65-0.45-1.051
				c0-0.399,0.15-0.75,0.45-1.05S610.1,667.6,610.5,667.6z M537.25,677.05c0.3-0.3,0.65-0.45,1.05-0.45c0.4,0,0.75,0.15,1.05,0.45
				c0.301,0.3,0.45,0.65,0.45,1.05c0,0.4-0.149,0.75-0.45,1.051c-0.3,0.3-0.649,0.449-1.05,0.449c-0.399,0-0.75-0.149-1.05-0.449
				c-0.3-0.301-0.45-0.65-0.45-1.051C536.8,677.7,536.95,677.35,537.25,677.05z M545.35,677.05c0.301,0.3,0.45,0.65,0.45,1.05
				c0,0.4-0.149,0.75-0.45,1.051c-0.3,0.3-0.649,0.449-1.05,0.449c-0.399,0-0.75-0.149-1.05-0.449c-0.3-0.301-0.45-0.65-0.45-1.051
				c0-0.399,0.15-0.75,0.45-1.05s0.65-0.45,1.05-0.45C544.7,676.6,545.05,676.75,545.35,677.05z M533.35,677.05
				c0.301,0.3,0.45,0.65,0.45,1.05c0,0.4-0.149,0.75-0.45,1.051c-0.3,0.3-0.649,0.449-1.05,0.449c-0.399,0-0.75-0.149-1.05-0.449
				c-0.3-0.301-0.45-0.65-0.45-1.051c0-0.399,0.15-0.75,0.45-1.05s0.65-0.45,1.05-0.45C532.7,676.6,533.05,676.75,533.35,677.05z
				 M557.35,679.15c-0.3,0.3-0.649,0.449-1.05,0.449c-0.399,0-0.75-0.149-1.05-0.449c-0.3-0.301-0.45-0.65-0.45-1.051
				c0-0.399,0.15-0.75,0.45-1.05s0.65-0.45,1.05-0.45c0.4,0,0.75,0.15,1.05,0.45c0.301,0.3,0.45,0.65,0.45,1.05
				C557.8,678.5,557.65,678.85,557.35,679.15z M561.25,677.05c0.3-0.3,0.65-0.45,1.05-0.45c0.4,0,0.75,0.15,1.05,0.45
				c0.301,0.3,0.45,0.65,0.45,1.05c0,0.4-0.149,0.75-0.45,1.051c-0.3,0.3-0.649,0.449-1.05,0.449c-0.399,0-0.75-0.149-1.05-0.449
				c-0.3-0.301-0.45-0.65-0.45-1.051C560.8,677.7,560.95,677.35,561.25,677.05z M549.25,677.05c0.3-0.3,0.65-0.45,1.05-0.45
				c0.4,0,0.75,0.15,1.05,0.45c0.301,0.3,0.45,0.65,0.45,1.05c0,0.4-0.149,0.75-0.45,1.051c-0.3,0.3-0.649,0.449-1.05,0.449
				c-0.399,0-0.75-0.149-1.05-0.449c-0.3-0.301-0.45-0.65-0.45-1.051C548.8,677.7,548.95,677.35,549.25,677.05z"/>
		</g>
	</g>
	
		<line fill-rule="evenodd" clip-rule="evenodd" fill="none" stroke="#33CCFF" stroke-width="3" stroke-linecap="round" stroke-linejoin="round" stroke-miterlimit="3" x1="78.8" y1="72.8" x2="172.75" y2="72.8"/>
	
		<line fill-rule="evenodd" clip-rule="evenodd" fill="none" stroke="#FF0101" stroke-width="3" stroke-linecap="round" stroke-linejoin="round" stroke-miterlimit="3" x1="192.739" y1="72.8" x2="266.969" y2="72.8"/>
	
		<line fill-rule="evenodd" clip-rule="evenodd" fill="none" stroke="#FF0101" stroke-width="3" stroke-linecap="round" stroke-linejoin="round" stroke-miterlimit="3" x1="78.303" y1="194.6" x2="120.529" y2="194.6"/>
	
		<line fill-rule="evenodd" clip-rule="evenodd" fill="none" stroke="#009900" stroke-width="3" stroke-linecap="round" stroke-linejoin="round" stroke-miterlimit="3" x1="140.496" y1="194.6" x2="267.151" y2="194.6"/>
	
		<line fill-rule="evenodd" clip-rule="evenodd" fill="none" stroke="#009900" stroke-width="3" stroke-linecap="round" stroke-linejoin="round" stroke-miterlimit="3" x1="114.929" y1="265.7" x2="233.419" y2="265.7"/>
	
		<line fill-rule="evenodd" clip-rule="evenodd" fill="none" stroke="#FFCD01" stroke-width="3" stroke-linecap="round" stroke-linejoin="round" stroke-miterlimit="3" x1="121.047" y1="133.7" x2="223.133" y2="133.7"/>
</g>
<g id="Layer_1">
	<text transform="matrix(1 0 0 1 338.2813 220.917)" font-family="'BookAntiqua-Bold'" font-size="16">HISTOGRAM</text>
	<text transform="matrix(1 0 0 1 540.7959 220.917)" font-family="'BookAntiqua-Bold'" font-size="16">BAR CHART</text>
	<text transform="matrix(1 0 0 1 758.3457 220.917)" font-family="'BookAntiqua-Bold'" font-size="16">BOX PLOT</text>
	<text transform="matrix(1 0 0 1 338.7349 511.8174)" font-family="'BookAntiqua-Bold'" font-size="16">LINE CHART</text>
	<text transform="matrix(1 0 0 1 532.8262 511.8174)" font-family="'BookAntiqua-Bold'" font-size="16">AREA CHART</text>
	<text transform="matrix(1 0 0 1 758.8594 511.8174)" font-family="'BookAntiqua-Bold'" font-size="16">TREE MAP</text>
	<text transform="matrix(1 0 0 1 153.4951 511.8174)" font-family="'BookAntiqua-Bold'" font-size="16">PIE CHART</text>
	<text transform="matrix(1 0 0 1 324.2485 815.917)" font-family="'BookAntiqua-Bold'" font-size="16">RADAR CHART</text>
	<text transform="matrix(1 0 0 1 505.7617 815.917)" font-family="'BookAntiqua-Bold'" font-size="16">WATERFALL CHART</text>
	<text transform="matrix(1 0 0 1 739.2441 815.917)" font-family="'BookAntiqua-Bold'" font-size="16">SCATTERPLOT</text>
	<text transform="matrix(1 0 0 1 128.8125 815.917)" font-family="'BookAntiqua-Bold'" font-size="16">BUBBLE CHART</text>
	<rect x="316.8" y="236.503" fill="none" width="158.55" height="73.75"/>
	<text transform="matrix(1 0 0 1 327.4941 247.3862)"><tspan x="0" y="0" font-family="'KhmerUI'" font-size="12">Chart used by responsible </tspan><tspan x="-7.254" y="13.95" font-family="'KhmerUI'" font-size="12">analysts who understand the </tspan><tspan x="-4.729" y="27.9" font-family="'KhmerUI'" font-size="12">power of segmentation and </tspan><tspan x="-7.617" y="41.85" font-family="'KhmerUI'" font-size="12">the sadness that comes from </tspan><tspan x="21.621" y="55.8" font-family="'KhmerUI'" font-size="12">aggregating data. </tspan></text>
	<rect x="502.65" y="236.503" fill="none" width="181.8" height="73.75"/>
	<text transform="matrix(1 0 0 1 511.543 247.3862)"><tspan x="0" y="0" font-family="'KhmerUI'" font-size="12">Safe choice. But make sure you </tspan><tspan x="4.309" y="13.95" font-family="'KhmerUI'" font-size="12">read Stephen Few before you </tspan><tspan x="2.076" y="27.9" font-family="'KhmerUI'" font-size="12">show the chart to your boss, it </tspan><tspan x="2.666" y="41.85" font-family="'KhmerUI'" font-size="12">will increase the probability of </tspan><tspan x="42.973" y="55.8" font-family="'KhmerUI'" font-size="12">getting a raise.</tspan></text>
	<rect x="718.5" y="236.503" fill="none" width="159.7" height="73.75"/>
	<text transform="matrix(1 0 0 1 730.1582 247.3862)"><tspan x="0" y="0" font-family="'KhmerUI'" font-size="12">This one is for pros. If you </tspan><tspan x="-1.555" y="13.95" font-family="'KhmerUI'" font-size="12">use it successfully, you will </tspan><tspan x="-9.1" y="27.9" font-family="'KhmerUI'" font-size="12">get a seat in heaven between </tspan><tspan x="0.297" y="41.85" font-family="'KhmerUI'" font-size="12">Ronald Fisher and Johann </tspan><tspan x="14.795" y="55.8" font-family="'KhmerUI'" font-size="12">Carl Friedrich Gauss.</tspan></text>
	<rect x="514.6" y="527.854" fill="none" width="160.5" height="45.85"/>
	<text transform="matrix(1 0 0 1 521.3438 538.7363)"><tspan x="0" y="0" font-family="'KhmerUI'" font-size="12">Please don&apos;t use this chart, I </tspan><tspan x="-3.958" y="13.95" font-family="'KhmerUI'" font-size="12">beg you! And please buy one </tspan><tspan x="33.85" y="27.9" font-family="'KhmerUI'" font-size="12">of Tufte books.</tspan></text>
	<rect x="118.1" y="527.854" fill="none" width="163.4" height="73.75"/>
	<text transform="matrix(1 0 0 1 140.7344 538.7363)"><tspan x="0" y="0" font-family="'KhmerUI'" font-size="12">Extremely useful when </tspan><tspan x="-5.03" y="13.95" font-family="'KhmerUI'" font-size="12">creating a well designed </tspan><tspan x="-18.141" y="27.9" font-family="'KhmerUI'" font-size="12">document that is intended to </tspan><tspan x="-15.981" y="41.85" font-family="'KhmerUI'" font-size="12">people that will not read the </tspan><tspan x="-3.861" y="55.8" font-family="'KhmerUI'" font-size="12">data (e.g. management)</tspan></text>
	<rect x="300.65" y="527.854" fill="none" width="175.35" height="73.75"/>
	<text transform="matrix(1 0 0 1 329.4883 538.7363)"><tspan x="0" y="0" font-family="'KhmerUI'" font-size="12">Useful to show trends, </tspan><tspan x="-1.652" y="13.95" font-family="'KhmerUI'" font-size="12">especially upwards (for </tspan><tspan x="-23.558" y="27.9" font-family="'KhmerUI'" font-size="12">downwards trends people tend </tspan><tspan x="-25.107" y="41.85" font-family="'KhmerUI'" font-size="12">to use more obscure charts, like </tspan><tspan x="-20.027" y="55.8" font-family="'KhmerUI'" font-size="12">the waterfall chart, see below)</tspan></text>
	<rect x="719.05" y="527.854" fill="none" width="164.4" height="73.75"/>
	<text transform="matrix(1 0 0 1 728.1367 538.7363)"><tspan x="0" y="0" font-family="'KhmerUI'" font-size="12">I have seen trees and I have </tspan><tspan x="0.419" y="13.95" font-family="'KhmerUI'" font-size="12">seen maps, but how exactly </tspan><tspan x="-2.007" y="27.9" font-family="'KhmerUI'" font-size="12">this map is a combination of </tspan><tspan x="-0.642" y="41.85" font-family="'KhmerUI'" font-size="12">both? If you use it, good for </tspan><tspan x="61.998" y="55.8" font-family="'KhmerUI'" font-size="12">you.</tspan></text>
	<rect x="715.55" y="831.953" fill="none" width="176.05" height="73.75"/>
	<text transform="matrix(1 0 0 1 721.541 842.8359)"><tspan x="0" y="0" font-family="'KhmerUI'" font-size="12">Very useful to find outliers, just </tspan><tspan x="1.162" y="13.95" font-family="'KhmerUI'" font-size="12">like the people that commonly </tspan><tspan x="-2.309" y="27.9" font-family="'KhmerUI'" font-size="12">create them: human beings that </tspan><tspan x="5.027" y="41.85" font-family="'KhmerUI'" font-size="12">finished their PhD in math by </tspan><tspan x="45.65" y="55.8" font-family="'KhmerUI'" font-size="12">the age of 16.</tspan></text>
	<rect x="501.15" y="831.953" fill="none" width="195.75" height="73.75"/>
	<text transform="matrix(1 0 0 1 529.3721 842.8359)"><tspan x="0" y="0" font-family="'KhmerUI'" font-size="12">Perfect if you want to hide </tspan><tspan x="-10.213" y="13.95" font-family="'KhmerUI'" font-size="12">information or misguide other </tspan><tspan x="-17.323" y="27.9" font-family="'KhmerUI'" font-size="12">people, Seriously, can you trust a </tspan><tspan x="-24.568" y="41.85" font-family="'KhmerUI'" font-size="12">chart that is also known as a &quot;Flying </tspan><tspan x="-22.556" y="55.8" font-family="'KhmerUI'" font-size="12">Bricks Chart&quot; or &quot;Mario Chart&quot;? No.</tspan></text>
	<rect x="302.85" y="831.953" fill="none" width="179.35" height="73.75"/>
	<text transform="matrix(1 0 0 1 313.9102 842.8359)"><tspan x="0" y="0" font-family="'KhmerUI'" font-size="12">If youwant to build a complex </tspan><tspan x="-1.371" y="13.95" font-family="'KhmerUI'" font-size="12">model around which you have </tspan><tspan x="1.471" y="27.9" font-family="'KhmerUI'" font-size="12">done a ton of research, that&apos;s </tspan><tspan x="-2.786" y="41.85" font-family="'KhmerUI'" font-size="12">your choice (but only PhDs will </tspan><tspan x="33.938" y="55.8" font-family="'KhmerUI'" font-size="12">understand you).</tspan></text>
	<rect x="109.4" y="831.953" fill="none" width="165.55" height="45.851"/>
	<text transform="matrix(1 0 0 1 127.5547 842.8359)"><tspan x="0" y="0" font-family="'KhmerUI'" font-size="12">If you manage to extract </tspan><tspan x="-11.88" y="13.95" font-family="'KhmerUI'" font-size="12">insights from this graph your </tspan><tspan x="6.896" y="27.9" font-family="'KhmerUI'" font-size="12">name is Hans Rosling.</tspan></text>
</g>
</svg>
